<?xml version="1.0" standalone="no"?>
<!DOCTYPE svg PUBLIC "-//W3C//DTD SVG 20010904//EN"
 "http://www.w3.org/TR/2001/REC-SVG-20010904/DTD/svg10.dtd">
<svg version="1.0" xmlns="http://www.w3.org/2000/svg"
 width="700.000000pt" height="700.000000pt" viewBox="0 0 700.000000 700.000000"
 preserveAspectRatio="xMidYMid meet">
<metadata>
Created by potrace 1.11, written by Peter Selinger 2001-2013
</metadata>
<g transform="translate(0.000000,700.000000) scale(0.100000,-0.100000)"
fill="#000000" stroke="none">
<path d="M3295 6803 c-722 -60 -1312 -292 -1870 -737 -197 -157 -464 -441
-621 -661 -290 -407 -488 -886 -568 -1375 -35 -212 -41 -292 -40 -545 0 -286
13 -412 64 -665 263 -1287 1297 -2322 2582 -2584 258 -53 343 -60 663 -61 306
0 375 5 600 46 1354 247 2427 1320 2674 2674 40 221 46 295 46 580 -1 307 -11
408 -67 675 -180 860 -704 1632 -1436 2114 -474 312 -979 486 -1557 535 -111
10 -376 12 -470 4z m530 -224 c607 -59 1189 -305 1673 -706 131 -110 357 -342
459 -475 359 -463 574 -986 645 -1563 19 -162 16 -577 -6 -735 -98 -703 -399
-1314 -891 -1805 -491 -492 -1100 -793 -1805 -891 -173 -24 -565 -25 -740 -1
-585 80 -1067 276 -1530 621 -158 118 -436 388 -556 541 -363 461 -579 984
-649 1570 -22 183 -22 521 -1 710 115 998 682 1859 1553 2354 542 308 1202
443 1848 380z"/>
<path d="M3180 6245 c-500 -63 -951 -245 -1349 -543 -152 -113 -420 -381 -533
-533 -253 -337 -426 -722 -507 -1129 -70 -349 -68 -763 4 -1112 173 -839 735
-1563 1500 -1933 611 -295 1267 -360 1926 -191 363 93 750 288 1044 526 103
82 323 302 405 405 174 214 356 536 450 795 303 833 189 1774 -302 2509 -431
645 -1107 1071 -1898 1196 -148 24 -584 29 -740 10z m384 -796 c16 -28 42 -45
155 -101 127 -62 410 -248 484 -317 16 -14 45 -59 65 -100 34 -69 36 -79 35
-162 0 -49 1 -89 4 -89 2 0 26 11 53 25 79 40 165 58 245 52 87 -7 125 -23
223 -93 42 -31 99 -67 127 -81 78 -40 153 -99 253 -200 85 -86 95 -93 131 -93
53 0 71 -8 71 -32 0 -25 -35 -84 -54 -91 -8 -3 -16 -29 -20 -64 -26 -228 -118
-547 -188 -650 -35 -52 -99 -108 -160 -139 -67 -34 -194 -75 -257 -83 l-54 -6
99 -82 c134 -111 185 -180 218 -292 50 -172 -37 -475 -217 -750 l-55 -84 14
-40 c8 -22 14 -49 14 -60 0 -18 -5 -19 -50 -15 -29 3 -59 13 -70 23 -20 18
-23 18 -108 -3 -120 -29 -184 -33 -427 -24 -198 7 -213 9 -265 34 -67 32 -101
63 -144 128 l-32 49 -38 -65 c-48 -84 -136 -171 -209 -208 -113 -56 -501 -85
-695 -51 l-101 18 -49 -36 -49 -37 -12 26 c-6 14 -11 45 -11 69 0 37 -8 57
-47 112 -64 95 -126 229 -178 388 -57 174 -68 237 -56 312 19 117 59 193 166
311 l57 62 -109 0 c-194 0 -311 38 -396 129 -100 107 -236 440 -278 679 -11
66 -15 74 -46 93 -56 35 -67 49 -50 66 8 8 36 20 63 27 45 11 56 21 126 107
108 134 194 214 347 323 156 112 207 132 308 122 78 -8 238 -70 329 -127 36
-23 67 -40 69 -37 2 2 -11 56 -30 118 -44 146 -53 242 -31 330 25 96 65 150
199 263 186 159 277 217 432 277 63 25 72 31 85 66 25 64 27 65 63 51 18 -8
40 -28 51 -48z"/>
<path d="M3400 4045 c-286 -65 -489 -344 -452 -622 37 -274 261 -485 532 -500
318 -18 599 245 600 563 0 194 -103 392 -255 489 -118 75 -282 102 -425 70z"/>
</g>
</svg>
