<svg width="61px" height="84px" viewBox="0 0 61 84" version="1.1" 
  xmlns="http://www.w3.org/2000/svg" 
  xmlns:xlink="http://www.w3.org/1999/xlink">
  <g id="Page-1" stroke="none" stroke-width="1" fill="none" fill-rule="evenodd">
    <g id="Desktop-HD-Copy-2" transform="translate(-251.000000, -1169.000000)" fill="#344663">
      <g id="EarlySense" transform="translate(251.000000, 1169.000000)">
        <g id="113">
          <path d="M53.0057895,70.4574803 L8.28315789,70.4574803 L8.28315789,44.711811 L5.65052632,44.711811 L5.65052632,77.2204724 C5.65052632,80.9574803 8.60421053,84 12.2321053,84 L49.0568421,84 C52.6847368,84 55.6384211,80.9574803 55.6384211,77.2204724 L55.6384211,44.711811 L53.0057895,44.711811 L53.0057895,70.4574803 Z M49.0568421,81.288189 L12.2321053,81.288189 C10.0489474,81.288189 8.28315789,79.4692913 8.28315789,77.2204724 L8.28315789,73.1527559 L53.0057895,73.1527559 L53.0057895,77.2204724 C53.0057895,79.4692913 51.24,81.288189 49.0568421,81.288189 Z" id="Shape" fill-rule="nonzero"></path>
          <path d="M8.28315789,13.5425197 L53.0057895,13.5425197 L53.0057895,36.576378 L55.6384211,36.576378 L55.6384211,6.77952756 C55.6384211,3.04251969 52.6847368,0 49.0568421,0 L12.2321053,0 C8.60421053,0 5.65052632,3.04251969 5.65052632,6.77952756 L5.65052632,36.5929134 L8.28315789,36.5929134 L8.28315789,13.5425197 Z M12.2321053,2.71181102 L49.0568421,2.71181102 C51.24,2.71181102 53.0057895,4.53070866 53.0057895,6.77952756 L53.0057895,10.8472441 L8.28315789,10.8472441 L8.28315789,6.77952756 C8.28315789,4.53070866 10.0489474,2.71181102 12.2321053,2.71181102 Z" id="Shape" fill-rule="nonzero"></path>
          <rect id="Rectangle-path" fill-rule="nonzero" x="22.7465789" y="5.42362205" width="15.7797368" height="2.71181102"></rect>
          <rect id="Rectangle-path" fill-rule="nonzero" x="28.0118421" y="75.8645669" width="5.26526316" height="2.71181102"></rect>
          <rect id="Rectangle-path" fill-rule="nonzero" x="17.4973684" y="5.42362205" width="2.63263158" height="2.71181102"></rect>
          <path d="M48.3665789,39.288189 C48.8,38.0645669 49.0568421,36.8574803 49.0568421,35.7165354 C49.0568421,29.4661417 44.3373684,24.3732283 38.5423684,24.3732283 C35.5084211,24.3732283 32.635,25.811811 30.6444737,28.2259843 C28.67,25.811811 25.7805263,24.3732283 22.7465789,24.3732283 C16.9515789,24.3732283 12.2321053,29.4661417 12.2321053,35.7165354 C12.2321053,36.8409449 12.4889474,38.0480315 12.9384211,39.288189 L0.0963157895,39.288189 L0.0963157895,42 L14.1905263,42 C18.6692105,50.1354331 30.6284211,59.9740157 30.6284211,59.9740157 C30.6284211,59.9740157 42.6839474,50.2181102 47.1305263,42 L60.8876316,42 L60.8876316,39.288189 L48.3665789,39.288189 Z M14.8647368,35.7330709 C14.8647368,30.9708661 18.4123684,27.1015748 22.7626316,27.1015748 C25.5397368,27.1015748 28.06,28.6559055 29.5047368,31.2850394 L30.6444737,33.3519685 L31.7842105,31.2850394 C33.2289474,28.6724409 35.7492105,27.1015748 38.5263158,27.1015748 C42.8765789,27.1015748 46.4242105,30.9708661 46.4242105,35.7330709 C46.4242105,36.8244094 46.0871053,38.0314961 45.5413158,39.3047244 L40.6292105,39.3047244 L37.5471053,42.4795276 L34.6094737,36.8740157 L30.3394737,42.2976378 L24.5605263,31.3181102 L19.1347368,39.3047244 L15.7797368,39.3047244 C15.2018421,38.0149606 14.8647368,36.807874 14.8647368,35.7330709 Z M30.6444737,56.5181102 C27.0807895,53.492126 20.7078947,47.4566929 17.2565789,42 L20.4992105,42 L24.2715789,36.4440945 L29.89,47.1425197 L34.16,41.7188976 L36.905,46.9440945 L41.7047368,42 L44.0805263,42 C40.6452632,47.5062992 34.2402632,53.5251969 30.6444737,56.5181102 Z" id="Shape" fill-rule="nonzero"></path>
        </g>
      </g>
    </g>
  </g>
</svg>