<svg height="73" viewBox="0 0 100 73" width="100" 
  xmlns="http://www.w3.org/2000/svg">
  <g style="stroke:#523628;fill:none;fill-rule:evenodd;stroke-linecap:round;stroke-linejoin:round;stroke-width:3" transform="translate(2 1)">
    <path d="m65.5304348 33.7823529c0 9.8764706-7.7217391 18.0352942-17.5304348 18.0352942-9.6 0-17.5304348-7.9441177-17.5304348-18.0352942 0-10.0911764 17.5304348-33.27941172 17.5304348-33.27941172s17.5304348 23.40294122 17.5304348 33.27941172z"/>
    <path d="m48 51.8176471s-35.8956522 6.6558823-35.8956522-41.0088236c0 0 16.4869565 0 24.626087 7.0852941"/>
    <path d="m39.2347826 51.8176471s-21.0782609 4.9382353-38.8173913-14.6c0 0 8.13913044-5.582353 14.6086957-5.7970589"/>
    <path d="m48 51.8176471s35.8956522 6.6558823 35.8956522-41.0088236c0 0-16.4869565 0-24.626087 7.0852941"/>
    <path d="m56.7652174 51.8176471s21.0782609 4.9382353 38.8173913-14.6c0 0-8.1391304-5.582353-14.6086957-5.7970589"/>
    <path d="m48 51.8176471s4.8 18.6794117-31.0956522 18.6794117c0 0 1.8782609-11.1647059 16.6956522-18.25"/>
    <path d="m16.9043478 49.0264706s-11.6869565 2.7911765-15.44347823 12.0235294c0 0 8.13913043 2.5764706 19.40869563 1.0735294"/>
    <path d="m48 51.8176471s-4.8 18.6794117 31.0956522 18.6794117c0 0-1.8782609-11.1647059-16.6956522-18.25"/>
    <path d="m79.0956522 49.0264706s11.6869565 2.7911765 15.4434782 12.0235294c0 0-8.1391304 2.5764706-19.4086956 1.0735294"/>
  </g>
</svg>