<svg width="102px" height="79px" viewBox="0 0 102 79" version="1.1" 
    xmlns="http://www.w3.org/2000/svg" 
    xmlns:xlink="http://www.w3.org/1999/xlink">
    <g id="Page-1" stroke="none" stroke-width="1" fill="none" fill-rule="evenodd" stroke-linecap="round" stroke-linejoin="round">
        <g id="Desktop-HD-Copy" transform="translate(-1129.000000, -1146.000000)" stroke="#344663">
            <g id="Individualized-Treatment" transform="translate(1131.000000, 1147.000000)">
                <g id="Business-Icons-22">
                    <path d="M75.4583333,47.2694444 L80.0416667,51.975 C81.9166667,53.9 81.9166667,56.8944444 80.0416667,58.6055556 C78.1666667,60.5305556 75.25,60.5305556 73.5833333,58.6055556 L70.4583333,55.3972222" id="Shape" stroke-width="3"></path>
                    <path d="M69,53.9 L76.2916667,61.3861111 C78.1666667,63.3111111 78.1666667,66.3055556 76.2916667,68.0166667 C74.4166667,69.9416667 71.5,69.9416667 69.8333333,68.0166667 L62.5416667,60.5305556" id="Shape" stroke-width="3"></path>
                    <path d="M60.6666667,58.6055556 L68.375,66.5194444 C70.25,68.4444444 70.25,71.4388889 68.375,73.15 C66.5,75.075 63.5833333,75.075 61.9166667,73.15 L54.2083333,65.2361111" id="Shape" stroke-width="3"></path>
                    <path d="M52.3333333,63.525 L56.7083333,68.0166667 C58.5833333,69.9416667 58.375,72.9361111 56.5,74.8611111 C54.625,76.7861111 51.5,76.7861111 49.8333333,75.075 L46.5,71.6527778" id="Shape" stroke-width="3"></path>
                    <path d="M52.75,23.9555556 L75.4583333,47.2694444" id="Shape" stroke-width="3"></path>
                    <path d="M19.8333333,44.275 L0.458333333,24.3833333 L20.875,3.63611111 L30.25,13.2611111 C30.25,13.2611111 39.8333333,10.6944444 49.4166667,13.475" id="Shape" stroke-width="3"></path>
                    <path d="M48.375,62.8833333 L48.5833333,63.0972222 C50.25,64.8083333 50.25,67.8027778 48.5833333,69.5138889 L44.4166667,73.7916667 C42.75,75.5027778 39.8333333,75.5027778 38.1666667,73.7916667 L37.9583333,73.5777778 C36.2916667,71.8666667 36.2916667,68.8722222 37.9583333,67.1611111 L42.125,62.8833333 C43.7916667,61.1722222 46.5,61.1722222 48.375,62.8833333 Z" id="Shape" stroke-width="3"></path>
                    <path d="M42.5416667,54.3277778 L42.75,54.5416667 C44.4166667,56.2527778 44.4166667,59.2472222 42.75,60.9583333 L36.9166667,66.9472222 C35.25,68.6583333 32.3333333,68.6583333 30.6666667,66.9472222 L30.4583333,66.7333333 C28.7916667,65.0222222 28.7916667,62.0277778 30.4583333,60.3166667 L36.2916667,54.3277778 C37.9583333,52.6166667 40.6666667,52.6166667 42.5416667,54.3277778 Z" id="Shape" stroke-width="3"></path>
                    <path d="M29.4166667,41.0666667 L29.625,41.2805556 C31.2916667,42.9916667 31.2916667,45.9861111 29.625,47.6972222 L23.7916667,53.6861111 C22.125,55.3972222 19.2083333,55.3972222 17.5416667,53.6861111 L17.3333333,53.4722222 C15.6666667,51.7611111 15.6666667,48.7666667 17.3333333,47.0555556 L23.1666667,41.0666667 C24.8333333,39.1416667 27.75,39.1416667 29.4166667,41.0666667 Z" id="Shape" stroke-width="3"></path>
                    <path d="M37.125,46.4138889 L37.3333333,46.6277778 C39,48.3388889 39,51.3333333 37.3333333,53.0444444 L29.2083333,61.3861111 C27.5416667,63.0972222 24.625,63.0972222 22.9583333,61.3861111 L22.75,61.1722222 C21.0833333,59.4611111 21.0833333,56.4666667 22.75,54.7555556 L30.875,46.4138889 C32.5416667,44.7027778 35.4583333,44.7027778 37.125,46.4138889 Z" id="Shape" stroke-width="3"></path>
                    <path d="M74.2083333,44.275 L97.5416667,20.3194444 L78.375,0.641666667 L61.7083333,18.1805556 C61.7083333,18.1805556 50.6666667,10.2666667 44.4166667,15.4 C41.5,17.7527778 38.375,19.6777778 36.0833333,21.175 C33.7916667,22.6722222 32.9583333,25.4527778 34,28.0194444 C35.25,30.8 38.5833333,32.0833333 41.2916667,30.5861111 L52.125,24.8111111" id="Shape" stroke-width="3"></path>
                </g>
            </g>
        </g>
    </g>
</svg>