<svg height="21" viewBox="0 0 21 21" width="21" 
  xmlns="http://www.w3.org/2000/svg">
  <path d="m19.4445417 0h-17.89433337c-.85575 0-1.55020833.678125-1.55020833 1.51316667v17.97162503c0 .8362083.69445833 1.5152083 1.55020833 1.5152083h17.89433337c.8563333 0 1.5554583-.679 1.5554583-1.5152083v-17.97162503c0-.83504167-.699125-1.51316667-1.5554583-1.51316667zm-13.2162917 17.8949167h-3.11616667v-10.02137503h3.11616667zm-1.55808333-11.39162503c-.998375 0-1.80541667-.80908334-1.80541667-1.80658334 0-.99604166.80704167-1.805125 1.80541667-1.805125.99604166 0 1.805125.80908334 1.805125 1.805125 0 .9975-.80908334 1.80658334-1.805125 1.80658334zm13.22358333 11.39162503h-3.1112083v-4.8731667c0-1.1625833-.02275-2.657375-1.6190417-2.657375-1.6210833 0-1.868125 1.266125-1.868125 2.5730833v4.95775h-3.11354167v-10.02166663h2.98812497v1.3685h.0425834c.4159166-.7875 1.4320833-1.61845834 2.9475833-1.61845834 3.15175 0 3.7339167 2.07491667 3.7339167 4.77429167v5.4970417z" fill="#fff" fill-rule="evenodd"/>
</svg>