<svg width="82px" height="71px" viewBox="0 0 82 71" version="1.1" 
  xmlns="http://www.w3.org/2000/svg" 
  xmlns:xlink="http://www.w3.org/1999/xlink">
  <g id="Page-1" stroke="none" stroke-width="1" fill="none" fill-rule="evenodd">
    <g id="Desktop-HD-Copy-2" transform="translate(-1130.000000, -1181.000000)" fill="#344663">
      <g id="Medical-Services" transform="translate(1130.000000, 1181.000000)">
        <g id="14">
          <path d="M75.3818898,9.69391101 L6.61811024,9.69391101 C2.97007874,9.69391101 0,12.7533958 0,16.5112412 L0,60.1088993 C0,63.8667447 2.97007874,66.9262295 6.61811024,66.9262295 L9.26535433,66.9262295 L9.26535433,71 L19.838189,71 L19.838189,66.9096019 L62.161811,66.9096019 L62.161811,71 L72.7346457,71 L72.7346457,66.9096019 L75.3818898,66.9096019 C79.0299213,66.9096019 82,63.8501171 82,60.0922717 L82,16.5112412 C82,12.7533958 79.0299213,9.69391101 75.3818898,9.69391101 Z M6.61811024,12.4208431 L75.3818898,12.4208431 C77.5771654,12.4208431 79.3527559,14.2498829 79.3527559,16.5112412 L79.3527559,53.2915691 L2.64724409,53.2915691 L2.64724409,16.5112412 C2.64724409,14.2498829 4.42283465,12.4208431 6.61811024,12.4208431 Z M75.3818898,64.1992974 L70.0874016,64.1992974 L70.0874016,68.2896956 L64.7929134,68.2896956 L64.7929134,64.1992974 L17.1748031,64.1992974 L17.1748031,68.2896956 L11.8964567,68.2896956 L11.8964567,64.1992974 L6.61811024,64.1992974 C4.42283465,64.1992974 2.64724409,62.3702576 2.64724409,60.1088993 L2.64724409,56.0185012 L79.3527559,56.0185012 L79.3527559,60.1088993 C79.3527559,62.35363 77.5771654,64.1992974 75.3818898,64.1992974 Z" id="Shape" fill-rule="nonzero"></path>
          <rect id="Rectangle-path" fill-rule="nonzero" x="39.676378" y="58.7454333" width="2.64724409" height="2.72693208"></rect>
          <rect id="Rectangle-path" fill-rule="nonzero" x="44.9708661" y="58.7454333" width="2.64724409" height="2.72693208"></rect>
          <rect id="Rectangle-path" fill-rule="nonzero" x="34.3818898" y="58.7454333" width="2.64724409" height="2.72693208"></rect>
          <path d="M31.7346457,4.24004684 C31.7346457,3.49180328 32.3318898,2.8765808 33.0582677,2.8765808 L48.9255906,2.8765808 C49.6519685,2.8765808 50.2492126,3.49180328 50.2492126,4.24004684 L50.2492126,8.33044496 L52.8964567,8.33044496 L52.8964567,4.24004684 C52.8964567,1.97868852 51.1208661,0.149648712 48.9255906,0.149648712 L33.0582677,0.149648712 C30.8629921,0.149648712 29.0874016,1.97868852 29.0874016,4.24004684 L29.0874016,8.33044496 L31.7346457,8.33044496 L31.7346457,4.24004684 Z" id="Shape" fill-rule="nonzero"></path>
          <path d="M35.7055118,46.4742389 L46.2783465,46.4742389 L46.2783465,38.2934426 L54.2200787,38.2934426 L54.2200787,27.4023419 L46.2783465,27.4023419 L46.2783465,19.2215457 L35.7055118,19.2215457 L35.7055118,27.4023419 L27.7637795,27.4023419 L27.7637795,38.2934426 L35.7055118,38.2934426 L35.7055118,46.4742389 Z M30.4271654,35.5831382 L30.4271654,30.129274 L38.3688976,30.129274 L38.3688976,21.9484778 L43.6633858,21.9484778 L43.6633858,30.129274 L51.6051181,30.129274 L51.6051181,35.5831382 L43.6633858,35.5831382 L43.6633858,43.7639344 L38.3688976,43.7639344 L38.3688976,35.5831382 L30.4271654,35.5831382 Z" id="Shape" fill-rule="nonzero"></path>
        </g>
      </g>
    </g>
  </g>
</svg>