<?xml version="1.0" encoding="UTF-8"?>
<svg width="48px" height="49px" viewBox="0 0 48 49" version="1.1" xmlns="http://www.w3.org/2000/svg" xmlns:xlink="http://www.w3.org/1999/xlink">
    <!-- Generator: Sketch 51.1 (57501) - http://www.bohemiancoding.com/sketch -->
    <title>Group 2</title>
    <desc>Created with Sketch.</desc>
    <defs></defs>
    <g id="Page-1" stroke="none" stroke-width="1" fill="none" fill-rule="evenodd">
        <g id="Mobile-Copy-3" transform="translate(-31.000000, -491.000000)">
            <g id="Group-3" transform="translate(25.000000, 486.000000)">
                <g id="Group-2" transform="translate(7.000000, 6.000000)">
                    <ellipse id="Oval-2" stroke="#E4C158" cx="23" cy="23.5" rx="23" ry="23.5"></ellipse>
                    <g id="Aiga_telephone" transform="translate(21.869632, 24.298043) rotate(-27.000000) translate(-21.869632, -24.298043) translate(15.869632, 7.798043)">
                        <path d="M5.51152294,0.674176874 C6.03438693,0.350571975 6.61157445,0.0943847624 7.22950462,0 C7.24987595,2.66974042 7.22950462,5.34622261 7.2430855,8.01596303 C7.26345683,8.42721093 7.26345683,8.83845882 7.24987595,9.24970671 C6.83565902,9.24296494 6.42144209,9.43847624 6.18377664,9.77556467 C5.79672148,10.2946809 5.6677031,10.9418907 5.55905603,11.5621334 C5.32818103,13.0655478 5.2738575,14.5824458 5.28743838,16.0993438 C5.3078097,17.6836594 5.44361853,19.2679751 5.68807442,20.8388072 C5.80351193,21.4455664 5.90536855,22.0860344 6.27884282,22.5984088 C6.49613695,22.915272 6.87640167,23.0770744 7.25666639,23.0770744 C7.26345683,26.0839033 7.25666639,29.0907321 7.25666639,32.097561 C6.62515534,32.0638521 6.02080605,31.8009232 5.49115162,31.4773183 C4.11948246,30.6278554 3.10091624,29.3132105 2.34717725,27.9109226 C1.03662205,25.4569188 0.452644093,22.7062771 0.181026437,19.969119 C0.0316367257,18.4724464 -0.0158963642,16.9690319 0.00447496005,15.4656175 C0.0655889328,12.3981127 0.391530121,9.29015733 1.41688677,6.37771323 C1.86505591,5.11700247 2.45582431,3.89674233 3.2570964,2.81131756 C3.86823612,1.97533824 4.62197512,1.22700191 5.51152294,0.674176874 Z" id="Shape"></path>
                        <path d="M5.51152294,0.674176874 C6.03438693,0.350571975 6.61157445,0.0943847624 7.22950462,0 C7.24987595,2.66974042 7.22950462,5.34622261 7.2430855,8.01596303 C7.26345683,8.42721093 7.26345683,8.83845882 7.24987595,9.24970671 C6.83565902,9.24296494 6.42144209,9.43847624 6.18377664,9.77556467 C5.79672148,10.2946809 5.6677031,10.9418907 5.55905603,11.5621334 C5.32818103,13.0655478 5.2738575,14.5824458 5.28743838,16.0993438 C5.3078097,17.6836594 5.44361853,19.2679751 5.68807442,20.8388072 C5.80351193,21.4455664 5.90536855,22.0860344 6.27884282,22.5984088 C6.49613695,22.915272 6.87640167,23.0770744 7.25666639,23.0770744 C7.26345683,26.0839033 7.25666639,29.0907321 7.25666639,32.097561 C6.62515534,32.0638521 6.02080605,31.8009232 5.49115162,31.4773183 C4.11948246,30.6278554 3.10091624,29.3132105 2.34717725,27.9109226 C1.03662205,25.4569188 0.452644093,22.7062771 0.181026437,19.969119 C0.0316367257,18.4724464 -0.0158963642,16.9690319 0.00447496005,15.4656175 C0.0655889328,12.3981127 0.391530121,9.29015733 1.41688677,6.37771323 C1.86505591,5.11700247 2.45582431,3.89674233 3.2570964,2.81131756 C3.86823612,1.97533824 4.62197512,1.22700191 5.51152294,0.674176874 Z" id="Shape" fill="#E4C158" fill-rule="nonzero"></path>
                        <path d="M7.58967001,0.00300479174 C8.47833194,0.00300479174 9.36699387,-0.00375598968 10.2556558,0.00300479174 C10.6999868,0.00976557316 11.082795,0.354565425 11.1853329,0.773733873 C11.1921688,1.06444747 11.2126763,1.65263546 11.2195122,1.94334906 L11.2195122,7.54803685 C11.1579894,7.91987983 11.2810349,8.32552672 11.1101384,8.67708735 C10.9597495,9.02864798 10.590613,9.26527533 10.2009689,9.26527533 C9.33281456,9.26527533 8.46466022,9.26527533 7.59650588,9.26527533 C7.58967001,6.17559823 7.58967001,3.0926819 7.58967001,0.00300479174 Z" id="Shape"></path>
                        <path d="M7.58967001,0.00300479174 C8.47833194,0.00300479174 9.36699387,-0.00375598968 10.2556558,0.00300479174 C10.6999868,0.00976557316 11.082795,0.354565425 11.1853329,0.773733873 C11.1921688,1.06444747 11.2126763,1.65263546 11.2195122,1.94334906 L11.2195122,7.54803685 C11.1579894,7.91987983 11.2810349,8.32552672 11.1101384,8.67708735 C10.9597495,9.02864798 10.590613,9.26527533 10.2009689,9.26527533 C9.33281456,9.26527533 8.46466022,9.26527533 7.59650588,9.26527533 C7.58967001,6.17559823 7.58967001,3.0926819 7.58967001,0.00300479174 Z" id="Shape" fill="#E4C158" fill-rule="nonzero"></path>
                        <path d="M7.58967001,23.1631883 C8.47833194,23.1631883 9.36015801,23.1631883 10.2488199,23.1631883 C10.6931509,23.1698536 11.082795,23.5097804 11.1853329,23.9230247 C11.1921688,24.2096297 11.2058405,24.7761744 11.2195122,25.0561141 L11.2195122,30.3949646 C11.1648253,30.7948785 11.2947067,31.2547795 11.0554515,31.6213672 C10.8708833,31.9346331 10.4949109,32.1012639 10.1326103,32.0945987 C9.28496354,32.1012639 8.44415264,32.0945987 7.59650588,32.0945987 C7.58967001,29.1152401 7.58967001,26.1425468 7.58967001,23.1631883 Z" id="Shape"></path>
                        <path d="M7.58967001,23.1631883 C8.47833194,23.1631883 9.36015801,23.1631883 10.2488199,23.1631883 C10.6931509,23.1698536 11.082795,23.5097804 11.1853329,23.9230247 C11.1921688,24.2096297 11.2058405,24.7761744 11.2195122,25.0561141 L11.2195122,30.3949646 C11.1648253,30.7948785 11.2947067,31.2547795 11.0554515,31.6213672 C10.8708833,31.9346331 10.4949109,32.1012639 10.1326103,32.0945987 C9.28496354,32.1012639 8.44415264,32.0945987 7.59650588,32.0945987 C7.58967001,29.1152401 7.58967001,26.1425468 7.58967001,23.1631883 Z" id="Shape" fill="#E4C158" fill-rule="nonzero"></path>
                    </g>
                </g>
            </g>
        </g>
    </g>
</svg>