<svg width="84px" height="90px" viewBox="0 0 84 90" version="1.1" 
    xmlns="http://www.w3.org/2000/svg" 
    xmlns:xlink="http://www.w3.org/1999/xlink">
    <g id="Page-1" stroke="none" stroke-width="1" fill="none" fill-rule="evenodd">
        <g id="Desktop-HD-Copy" transform="translate(-713.000000, -1134.000000)" fill="#344663" fill-rule="nonzero">
            <g id="157" transform="translate(713.000000, 1134.000000)">
                <path d="M84,39.1889764 C84,33.5905512 79.4570707,29.019685 73.8535354,29.019685 C68.25,29.019685 63.7070707,33.5728346 63.7070707,39.1889764 C63.7070707,44.2913386 67.489899,48.5255906 72.4040404,49.234252 L72.4040404,60.2362205 C72.4040404,64.6299213 68.8333333,68.226378 64.4318182,68.226378 L27.5227273,68.226378 L27.5227273,53.6279528 C41.2222222,52.8661417 52.1464646,41.492126 52.1464646,27.5669291 L52.1464646,4.35826772 L44.8989899,4.35826772 L44.8989899,0 L42,0 C38.8005051,0 36.2020202,2.60433071 36.2020202,5.81102362 C36.2020202,9.01771654 38.8005051,11.6220472 42,11.6220472 L44.8989899,11.6220472 L44.8989899,7.26377953 L49.2474747,7.26377953 L49.2474747,27.5846457 C49.2474747,32.1909449 47.8863636,36.4606299 45.5707071,40.0748031 C33.3030303,45.9389764 18.8080808,45.9212598 6.54040404,40.0393701 C4.24242424,36.4251969 2.88131313,32.1555118 2.88131313,27.5846457 L2.88131313,7.26377953 L7.22979798,7.26377953 L7.22979798,11.6220472 L10.1287879,11.6220472 C13.3282828,11.6220472 15.9267677,9.01771654 15.9267677,5.81102362 C15.9267677,2.60433071 13.3282828,0 10.1287879,0 L7.24747475,0 L7.24747475,4.35826772 L0,4.35826772 L0,27.5846457 C0,41.5098425 10.9242424,52.8838583 24.6237374,53.6456693 L24.6237374,68.2440945 L16.6515152,68.2440945 C10.6590909,68.2440945 5.78030303,73.1338583 5.78030303,79.1397638 C5.78030303,85.1456693 10.6590909,90 16.6515152,90 C22.6439394,90 27.5227273,85.1102362 27.5227273,79.1043307 L27.5227273,71.1141732 L64.4494949,71.1141732 C70.4419192,71.1141732 75.3207071,66.2244094 75.3207071,60.2185039 L75.3207071,49.2165354 C80.2171717,48.5255906 84,44.3090551 84,39.1889764 Z M42,8.71653543 C40.4090909,8.71653543 39.1010101,7.40551181 39.1010101,5.81102362 C39.1010101,4.21653543 40.4090909,2.90551181 42,2.90551181 L42,8.71653543 Z M10.1287879,2.90551181 C11.719697,2.90551181 13.0277778,4.21653543 13.0277778,5.81102362 C13.0277778,7.40551181 11.719697,8.71653543 10.1287879,8.71653543 L10.1287879,2.90551181 Z M24.6237374,79.1043307 C24.6237374,83.4980315 21.0530303,87.0944882 16.6515152,87.0944882 C12.25,87.0944882 8.67929293,83.515748 8.67929293,79.1043307 C8.67929293,74.6929134 12.25,71.1141732 16.6515152,71.1141732 L24.6237374,71.1141732 L24.6237374,79.1043307 Z M41.540404,44.8228346 C37.4393939,48.5255906 32.0126263,50.8110236 26.0732323,50.8110236 C20.1161616,50.8110236 14.7070707,48.5255906 10.5883838,44.8228346 C15.5909091,46.523622 20.8232323,47.3740157 26.0732323,47.3740157 C31.3055556,47.3740157 36.5378788,46.5059055 41.540404,44.8228346 Z M73.8712121,46.4527559 C69.8762626,46.4527559 66.6237374,43.1929134 66.6237374,39.1889764 C66.6237374,35.1850394 69.8762626,31.9251969 73.8712121,31.9251969 C77.8661616,31.9251969 81.1186869,35.1850394 81.1186869,39.1889764 C81.1186869,43.1929134 77.8484848,46.4527559 73.8712121,46.4527559 Z" id="Shape"></path>
            </g>
        </g>
    </g>
</svg>