<svg width="62px" height="84px" viewBox="0 0 62 84" version="1.1" 
  xmlns="http://www.w3.org/2000/svg" 
  xmlns:xlink="http://www.w3.org/1999/xlink">
  <g id="Page-1" stroke="none" stroke-width="1" fill="none" fill-rule="evenodd" stroke-linecap="round" stroke-linejoin="round">
    <g id="Desktop-HD-Copy" transform="translate(-227.000000, -1132.000000)" stroke="#344663" stroke-width="3">
      <g id="Group-20" transform="translate(229.000000, 1134.000000)">
        <g id="Christmas-Tree-Icons-01">
          <path d="M28.9136431,0.174876847 L13.8875403,22.908867 C13.196685,24.1330049 13.8875403,25.7068966 15.2692509,25.7068966 L16.8236753,25.7068966 C18.2053859,25.7068966 19.068955,27.2807882 18.2053859,28.5049261 L6.28813197,45.817734 C5.42456284,47.0418719 6.28813197,48.6157635 7.66984257,48.6157635 L9.05155318,48.6157635 C10.4332638,48.6157635 11.2968329,50.0147783 10.6059776,51.2389163 L0.243148085,68.726601 C-0.447707216,69.4261084 0.415861911,71 1.79757251,71 L29.4317846,71 L56.2024275,71 C57.5841381,71 58.4477072,69.6009852 57.7568519,68.3768473 L47.3940224,50.8891626 C46.7031671,49.6650246 47.5667362,48.2660099 48.9484468,48.2660099 L50.3301574,48.2660099 C51.711868,48.2660099 52.5754372,46.6921182 51.711868,45.4679803 L39.7946141,28.1551724 C38.931045,26.9310345 39.7946141,25.3571429 41.1763247,25.3571429 L42.7307491,25.3571429 C44.1124597,25.3571429 44.9760288,23.7832512 44.1124597,22.7339901 L29.4317846,0" id="Shape"></path>
          <path d="M30,71 L30,80" id="Shape"></path>
        </g>
      </g>
    </g>
  </g>
</svg>