<svg height="19" viewBox="0 0 23 19" width="23" 
  xmlns="http://www.w3.org/2000/svg">
  <path d="m22.8525641 2.410625c-.8353718.372875-1.7329615.62492188-2.6753718.73803125.9615769-.58039062 1.7005256-1.49951562 2.0478846-2.59409375-.8999487.53734375-1.8972051.92803125-2.957859 1.137625-.8495256-.9108125-2.0602692-1.4808125-3.4001666-1.4808125-2.5724616 0-4.6583846 2.0995-4.6583846 4.69003125 0 .36723438.041282.7255625.1208974 1.06904688-3.87166666-.19564063-7.30397436-2.06298438-9.60161538-4.9008125-.40102564.69290625-.63073077 1.49892187-.63073077 2.35807812 0 1.62717188.82239743 3.06226563 2.07235897 3.90360938-.76342307-.02464063-1.48173077-.23571875-2.10980769-.586625-.00058974.01959375-.00058974.03889062-.00058974.05907812 0 2.2716875 1.60557692 4.16723435 3.73632051 4.59859375-.39070513.1065781-.80205128.1641719-1.22696154.1641719-.30047436 0-.59210256-.0290938-.87665384-.0840156.5926923 1.8628906 2.31297435 3.2193125 4.35142307 3.2573125-1.59437179 1.2575625-3.60274359 2.0077656-5.78538461 2.0077656-.37596154 0-.74661539-.0219688-1.1113718-.0656094 2.06144872 1.3305938 4.5100641 2.106625 7.14061539 2.106625 8.56838463 0 13.25389743-7.1460781 13.25389743-13.34304687 0-.2030625-.0047179-.40582813-.0135641-.60740625.910859-.66084375 1.7008205-1.48704688 2.3250641-2.42754688z" fill="#fff" fill-rule="evenodd"/>
</svg>