<?xml version="1.0" encoding="UTF-8"?>
<svg viewBox="0 0 89 89" version="1.1" xmlns="http://www.w3.org/2000/svg" xmlns:xlink="http://www.w3.org/1999/xlink">
    <!-- Generator: Sketch 50.2 (55047) - http://www.bohemiancoding.com/sketch -->
    <title>insurance copy</title>
    <desc>Created with Sketch.</desc>
    <defs></defs>
    <g id="AAC" stroke="none" stroke-width="1" fill="none" fill-rule="evenodd">
        <g id="AAC-Mobile" transform="translate(-116.000000, -2250.000000)">
            <g id="what-happens-when-you-call" transform="translate(0.000000, 1754.000000)">
                <g id="insurance" transform="translate(11.000000, 498.000000)">
                    <g transform="translate(107.000000, 0.000000)">
                        <g id="Group-Copy-11" stroke="#E4C158">
                            <g id="Group-4" stroke-width="3">
                                <circle id="Oval" cx="42.5" cy="42.5" r="42.5"></circle>
                            </g>
                        </g>
                        <g id="39" transform="translate(20.710660, 20.710660)" fill="#E4C158">
                            <rect id="Rectangle-path" fill-rule="nonzero" x="3.88324873" y="18.9847716" width="22.4365482" height="1.29441624"></rect>
                            <rect id="Rectangle-path" fill-rule="nonzero" x="3.88324873" y="24.5939086" width="20.2791878" height="1.29441624"></rect>
                            <rect id="Rectangle-path" fill-rule="nonzero" x="3.88324873" y="30.2030457" width="14.2385787" height="1.29441624"></rect>
                            <rect id="Rectangle-path" fill-rule="nonzero" x="3.88324873" y="35.8121827" width="1.29441624" height="1.29441624"></rect>
                            <rect id="Rectangle-path" fill-rule="nonzero" x="6.9035533" y="35.8121827" width="1.29441624" height="1.29441624"></rect>
                            <rect id="Rectangle-path" fill-rule="nonzero" x="9.92385787" y="35.8121827" width="1.29441624" height="1.29441624"></rect>
                            <path d="M42.9610296,17.3628442 L40.9708222,15.3726368 C40.1730235,14.5748381 38.7833097,14.5748381 37.985511,15.3726368 L30.9254217,22.4327261 L30.9254217,0 L12.3615902,0 L0,12.3615902 L0,43.5786802 L30.9254217,43.5786802 L30.9254217,32.3837633 L42.9610296,20.3481554 C43.7845637,19.5246213 43.7845637,18.1863784 42.9610296,17.3628442 Z M11.9498231,2.4019745 L11.9498231,11.9498231 L2.4019745,11.9498231 L11.9498231,2.4019745 Z M1.40687078,42.1718094 L1.40687078,13.3566939 L13.3566939,13.3566939 L13.3566939,1.40687078 L29.5271294,1.40687078 L29.5271294,23.8481754 L18.9584416,34.4168632 L17.7145619,40.627683 L23.9253817,39.3838033 L29.5185509,33.7906341 L29.5185509,42.1718094 L1.40687078,42.1718094 Z M20.0307516,36.1840301 L22.1496363,38.3029148 L19.4988858,38.8347806 L20.0307516,36.1840301 Z M23.5822425,37.7453136 L20.5969313,34.7600024 L34.5112265,20.8457073 L37.4965376,23.8310184 L23.5822425,37.7453136 Z M38.4916414,22.8359147 L35.5063302,19.8506035 L36.5014339,18.8554998 L39.4867451,21.840811 L38.4916414,22.8359147 Z M41.9659259,19.3530517 L40.4732703,20.8457073 L37.4879592,17.8603961 L38.9806147,16.3677405 C39.2465476,16.1018076 39.7097856,16.1018076 39.9757185,16.3677405 L41.9659259,18.357948 C42.2404373,18.6324593 42.2404373,19.0785403 41.9659259,19.3530517 Z" id="Shape" fill-rule="nonzero"></path>
                            <polygon id="Shape" fill-rule="nonzero" points="20.644077 13.3756345 22.063007 13.3756345 22.063007 9.11884457 26.319797 9.11884457 26.319797 7.69991459 22.063007 7.69991459 22.063007 3.45177665 20.644077 3.45177665 20.644077 7.69991459 16.3959391 7.69991459 16.3959391 9.11884457 20.644077 9.11884457"></polygon>
                        </g>
                    </g>
                </g>
            </g>
        </g>
    </g>
</svg>