<?xml version="1.0" encoding="UTF-8"?>
<svg width="21px" height="21px" viewBox="0 0 21 21" version="1.1" xmlns="http://www.w3.org/2000/svg" xmlns:xlink="http://www.w3.org/1999/xlink">
    <!-- Generator: Sketch 50.2 (55047) - http://www.bohemiancoding.com/sketch -->
    <title>fi-social-linkedin copy</title>
    <desc>Created with Sketch.</desc>
    <defs></defs>
    <g id="AAC" stroke="none" stroke-width="1" fill="none" fill-rule="evenodd">
        <g id="AAC-Mobile" transform="translate(-11.000000, -6937.000000)" fill="#FFFFFF">
            <g id="footer" transform="translate(-1.000000, 6738.000000)">
                <g id="Group-16" transform="translate(12.000000, 103.000000)">
                    <g id="social-icons" transform="translate(0.000000, 96.000000)">
                        <g id="fi-social-linkedin-copy">
                            <g id="Layer_1">
                                <path d="M19.4445417,0 L1.55020833,0 C0.694458333,0 0,0.678125 0,1.51316667 L0,19.4847917 C0,20.321 0.694458333,21 1.55020833,21 L19.4445417,21 C20.300875,21 21,20.321 21,19.4847917 L21,1.51316667 C21,0.678125 20.300875,0 19.4445417,0 L19.4445417,0 Z M6.22825,17.8949167 L3.11208333,17.8949167 L3.11208333,7.87354167 L6.22825,7.87354167 L6.22825,17.8949167 L6.22825,17.8949167 Z M4.67016667,6.50329167 C3.67179167,6.50329167 2.86475,5.69420833 2.86475,4.69670833 C2.86475,3.70066667 3.67179167,2.89158333 4.67016667,2.89158333 C5.66620833,2.89158333 6.47529167,3.70066667 6.47529167,4.69670833 C6.47529167,5.69420833 5.66620833,6.50329167 4.67016667,6.50329167 L4.67016667,6.50329167 Z M17.89375,17.8949167 L14.7825417,17.8949167 L14.7825417,13.02175 C14.7825417,11.8591667 14.7597917,10.364375 13.1635,10.364375 C11.5424167,10.364375 11.295375,11.6305 11.295375,12.9374583 L11.295375,17.8952083 L8.18183333,17.8952083 L8.18183333,7.87354167 L11.1699583,7.87354167 L11.1699583,9.24204167 L11.2125417,9.24204167 C11.6284583,8.45454167 12.644625,7.62358333 14.160125,7.62358333 C17.311875,7.62358333 17.8940417,9.6985 17.8940417,12.397875 L17.8940417,17.8949167 L17.89375,17.8949167 Z" id="Shape"></path>
                            </g>
                        </g>
                    </g>
                </g>
            </g>
        </g>
    </g>
</svg>