<svg height="22" viewBox="0 0 21 22" width="21" xmlns="http://www.w3.org/2000/svg"><g fill="#fff" fill-rule="evenodd" transform=""><path d="m15.738625 9.59913514c0 2.94889186-2.3452917 5.33945946-5.2383333 5.33945946-2.8930417 0-5.23833337-2.3905676-5.23833337-5.33945946 0-.83094595.191625-1.61432433.52354167-2.31535136h-5.7855v12.48648652c0 1.1445946.91875 2.0810811 2.04166667 2.0810811h16.91666663c1.1229167 0 2.0416667-.9364865 2.0416667-2.0810811v-12.48648652h-5.7852083c.3322083.70102703.5238333 1.48440541.5238333 2.31535136z"/><path d="m18.9583333.14864865h-16.91666663c-1.12291667 0-2.04166667.93648649-2.04166667 2.08108108v4.16216216h6.31895833c.95608334-1.29294594 2.47041667-2.13221621 4.18104167-2.13221621s3.2249583.83927027 4.1810417 2.13221621h6.3189583v-4.16216216c0-1.14459459-.91875-2.08108108-2.0416667-2.08108108zm-17.27949997 5.26691892h-.76008333v-3.00121622c0-.52502703.31383333-.97483784.760375-1.166v4.16721622zm1.24541667 0h-.720125v-4.26562162h.720125zm1.245125 0h-.720125v-4.26562162h.720125zm1.24425-3.00121622v1.73681081 1.26440541h-.71925v-4.26562162h.71925zm14.5220833 1.73681081c0 .69864865-.5553333 1.26440541-1.239875 1.26440541h-2.015125c-.6848333 0-1.2401666-.56575676-1.2401666-1.26440541v-1.73681081c0-.69864865.5553333-1.2644054 1.2401666-1.2644054h2.015125c.6848334 0 1.239875.56575675 1.239875 1.2644054z"/><path d="m10.5002917 14.3142703c2.548 0 4.6135833-2.1063514 4.6135833-4.70294598 0-2.59689189-2.0652917-4.70324324-4.6135833-4.70324324-2.54858337 0-4.6141667 2.10635135-4.6141667 4.70324324 0 2.59629728 2.06558333 4.70294598 4.6141667 4.70294598zm-.0002917-8.45008111c2.03 0 3.6761667 1.67764865 3.6761667 3.74713513 0 2.06918918-1.645875 3.74713518-3.6761667 3.74713518-2.03029167 0-3.67616667-1.6776487-3.67616667-3.74713518.00029167-2.06978378 1.64616667-3.74713513 3.67616667-3.74713513z"/></g></svg>