<svg viewBox="0 0 89 89" xmlns="http://www.w3.org/2000/svg"><g fill="none" fill-rule="evenodd"><circle cx="44.5" cy="44.5" r="42.5" stroke="#e4c158" stroke-width="3"/><path d="m38.4105718 28.167623-6.5426383-6.5439932c-1.0430293-1.1380858-2.8446253-1.1380858-3.9824755 0l-3.7928337 3.7936193c-.0948209.0948405-.1896417.1896809-.2844626.2845214 0 .0948405-.8533876 1.2329263-2.3705211 1.3277668-1.7067752.1896809-3.7928338-.9484049-5.9737132-3.1297359-.0948209-.0948405-.2844625-.189681-.3792834-.189681-1.9912377-2.0864906-3.1290879-4.0781407-2.9394462-5.7852694.1896417-1.5174477 1.232671-2.371012 1.3274919-2.371012.0948208-.0948405.1896416-.189681.2844625-.2845215l3.8876546-3.8884597c1.1378502-1.1380858 1.1378502-2.84521445 0-3.98330023l-6.5426383-6.54399323c-1.0430293-1.13808579-2.8446253-1.13808579-3.98247544 0l-3.69801294 3.69877878c-.09482084 0-.18964169.09484048-.28446253.18968096-.09482085.09484048-2.93944619 2.560693-3.12908788 7.39755752-.18964169 5.4059075 2.93944619 11.3808578 9.29244278 17.7351701h.09482084v.0948405c6.16335487 6.1646313 11.94742647 9.2943672 17.16257287 9.2943672h.4741042c4.8358631-.189681 7.3012051-3.0348954 7.3960259-3.1297359l3.9824755-3.9833002c.5689251-.5690429.8533876-1.2329263.8533876-1.9916501 0-.7587239-.2844625-1.4226073-.8533876-1.9916502zm-29.96338691-25.98629192c.37928337-.37936193.94820844-.37936193 1.32749182 0l6.54263829 6.54399323c.3792834.37936193.3792834.94840482 0 1.32776679l-3.3187296 3.3194168-7.87013008-7.87175997zm18.49006471 35.18581872c-4.7410422.1896809-10.2406512-2.8452145-16.1195436-8.6304839 0-.0948405-.0948208-.1896809-.1896417-.2845214-5.87889235-5.8801099-8.91315938-11.4756983-8.72351769-16.2177224.09482084-2.75037394 1.13785013-4.55234309 1.89641689-5.40590742l7.8701301 7.87176002c-.5689251.5690428-1.1378501 1.6122881-1.3274918 2.9400549-.1896417 2.2761715 1.0430293 4.8368645 3.6980129 7.492398h.0948209v.0948405c2.3705211 2.4658525 4.7410422 3.6987788 6.9219216 3.6987788.1896417 0 .3792834 0 .6637459-.0948405 1.3274919-.0948405 2.2757003-.6638834 2.8446254-1.2329262l7.7753092 7.7769194c-.7585667.7587239-2.5601628 1.8968097-5.4047881 1.9916502zm10.1458304-6.5439933-3.3187296 3.3194169-7.8701301-7.87176 3.3187296-3.3194168c.3792833-.379362.9482084-.379362 1.3274918 0l6.5426383 6.5439932c.1896417.1896809.2844625.3793619.2844625.6638834 0 .2845214-.0948208.4742024-.2844625.6638833z" fill="#e4c158" fill-rule="nonzero" transform="translate(25.730964 25.730964)"/></g></svg>