<?xml version="1.0" encoding="UTF-8"?>
<svg width="21px" height="22px" viewBox="0 0 21 22" version="1.1" xmlns="http://www.w3.org/2000/svg" xmlns:xlink="http://www.w3.org/1999/xlink">
    <!-- Generator: Sketch 50.2 (55047) - http://www.bohemiancoding.com/sketch -->
    <title>fi-social-instagram copy</title>
    <desc>Created with Sketch.</desc>
    <defs></defs>
    <g id="AAC" stroke="none" stroke-width="1" fill="none" fill-rule="evenodd">
        <g id="AAC-Mobile" transform="translate(-110.000000, -6937.000000)" fill="#FFFFFF">
            <g id="footer" transform="translate(-1.000000, 6738.000000)">
                <g id="Group-16" transform="translate(12.000000, 103.000000)">
                    <g id="social-icons" transform="translate(0.000000, 96.000000)">
                        <g id="fi-social-instagram-copy" transform="translate(99.000000, 0.000000)">
                            <g id="Layer_1">
                                <g id="Group">
                                    <path d="M15.738625,9.59913514 C15.738625,12.548027 13.3933333,14.9385946 10.5002917,14.9385946 C7.60725,14.9385946 5.26195833,12.548027 5.26195833,9.59913514 C5.26195833,8.76818919 5.45358333,7.98481081 5.7855,7.28378378 L0,7.28378378 L0,19.7702703 C0,20.9148649 0.91875,21.8513514 2.04166667,21.8513514 L18.9583333,21.8513514 C20.08125,21.8513514 21,20.9148649 21,19.7702703 L21,7.28378378 L15.2147917,7.28378378 C15.547,7.98481081 15.738625,8.76818919 15.738625,9.59913514 L15.738625,9.59913514 Z" id="Shape"></path>
                                    <path d="M18.9583333,0.148648649 L2.04166667,0.148648649 C0.91875,0.148648649 0,1.08513514 0,2.22972973 L0,6.39189189 L6.31895833,6.39189189 C7.27504167,5.09894595 8.789375,4.25967568 10.5,4.25967568 C12.210625,4.25967568 13.7249583,5.09894595 14.6810417,6.39189189 L21,6.39189189 L21,2.22972973 C21,1.08513514 20.08125,0.148648649 18.9583333,0.148648649 L18.9583333,0.148648649 Z M1.67883333,5.41556757 L0.91875,5.41556757 L0.91875,2.41435135 C0.91875,1.88932432 1.23258333,1.43951351 1.679125,1.24835135 L1.679125,5.41556757 L1.67883333,5.41556757 Z M2.92425,5.41556757 L2.204125,5.41556757 L2.204125,1.14994595 L2.92425,1.14994595 L2.92425,5.41556757 L2.92425,5.41556757 Z M4.169375,5.41556757 L3.44925,5.41556757 L3.44925,1.14994595 L4.169375,1.14994595 L4.169375,5.41556757 L4.169375,5.41556757 Z M5.413625,2.41435135 L5.413625,4.15116216 L5.413625,5.41556757 L4.694375,5.41556757 L4.694375,1.14994595 L5.413625,1.14994595 L5.413625,2.41435135 L5.413625,2.41435135 Z M19.9357083,4.15116216 C19.9357083,4.84981081 19.380375,5.41556757 18.6958333,5.41556757 L16.6807083,5.41556757 C15.995875,5.41556757 15.4405417,4.84981081 15.4405417,4.15116216 L15.4405417,2.41435135 C15.4405417,1.7157027 15.995875,1.14994595 16.6807083,1.14994595 L18.6958333,1.14994595 C19.3806667,1.14994595 19.9357083,1.7157027 19.9357083,2.41435135 L19.9357083,4.15116216 L19.9357083,4.15116216 Z" id="Shape"></path>
                                    <path d="M10.5002917,14.3142703 C13.0482917,14.3142703 15.113875,12.2079189 15.113875,9.61132432 C15.113875,7.01443243 13.0485833,4.90808108 10.5002917,4.90808108 C7.95170833,4.90808108 5.886125,7.01443243 5.886125,9.61132432 C5.886125,12.2076216 7.95170833,14.3142703 10.5002917,14.3142703 L10.5002917,14.3142703 Z M10.5,5.86418919 C12.53,5.86418919 14.1761667,7.54183784 14.1761667,9.61132432 C14.1761667,11.6805135 12.5302917,13.3584595 10.5,13.3584595 C8.46970833,13.3584595 6.82383333,11.6808108 6.82383333,9.61132432 C6.824125,7.54154054 8.47,5.86418919 10.5,5.86418919 L10.5,5.86418919 Z" id="Shape"></path>
                                </g>
                            </g>
                        </g>
                    </g>
                </g>
            </g>
        </g>
    </g>
</svg>