<svg viewBox="0 0 89 89" xmlns="http://www.w3.org/2000/svg"><g fill="none" fill-rule="evenodd" stroke="#e4c158" transform="translate(2 2)"><circle cx="42.5" cy="42.5" r="42.5" stroke-width="3"/><path d="m54.623844 31.0671587c0-3.2091602-2.0817958-6.1516605-4.6388272-6.5608911-2.7471256-.4369527-5.2183506 2.0250316-6.7721069 6.7668265h-1.2540939c-1.4362675-4.3774476-3.6513933-6.8169903-6.1477002-6.8169903-.2072555 0-.414511.0171613-.6244067.0501638-2.5583515.4092306-4.6388273 3.3517309-4.6388273 6.5608911 0 5.9166829 9.9548652 13.5310129 12.0379811 15.0570471 2.0817959-1.5273543 12.0379811-9.1443245 12.0379811-15.0570471zm1.3200989 0c0 7.2552631-12.449852 16.0418408-12.9805317 16.4141087h-.7564166c-.5293596-.3722679-12.9792116-9.1588456-12.9792116-16.4141087 0-3.8942915 2.5253491-7.34767 5.7503505-7.8638286 1.5088729-.2428982 5.0810603-.0686452 7.6077294 5.9668466 2.5266692-6.0394521 6.0988566-6.212385 7.6077295-5.9668466 3.2236813.5161586 5.7503505 3.9695371 5.7503505 7.8638286zm6.6981813 3.3081676c-1.8256966 0-3.3094877 1.4851112-3.3094877 3.3094878v5.8005142c-1.2725752.1438907-2.2705699 1.2131708-2.2705699 2.5240289v2.3748578l-5.2975566 5.2988766v7.841387h1.3200988v-7.2948661l5.2975566-5.2988766v-2.9213787c0-.5795234.4105507-1.0441982.9504711-1.1748879v.0396029h.7590568c.4435532.187454.7550966.6257269.7550966 1.135285v3.4045348h1.3200988v-3.4045348c0-1.0375977-.6244068-1.9273443-1.5141534-2.3260141v-5.998529c0-1.0970021.8923868-1.9893889 1.9893889-1.9893889 1.0956821 0 1.9880689.8923868 1.9880689 1.9893889v13.7277076l-6.8117099 6.8103897v3.3015672h1.3200988v-2.7550463l6.8117099-6.8103897v-14.2742285c0-1.8243766-1.4837911-3.3094878-3.3081677-3.3094878zm-34.5324649 14.0088887 5.2975566 5.2988766v7.841387h-1.3200988v-7.2948661l-5.2975566-5.2988766v-2.9213787c0-.5795234-.4105507-1.0441982-.9504711-1.1748879v.0396029h-.7590568c-.4435532.187454-.7550966.6257269-.7550966 1.135285v3.4045348h-1.3200988v-3.4045348c0-1.0375977.6244068-1.9273443 1.5141534-2.3260141v-5.998529c0-1.0970021-.8923868-1.9893889-1.989389-1.9893889-1.0970021 0-1.9880688.8923868-1.9880688 1.9893889v13.7277076l6.8103898 6.8103897v3.3015672h-1.3200988v-2.7550463l-6.8103898-6.8103897v-14.2742285c0-1.8243766 1.4837911-3.3094878 3.3081676-3.3094878 1.8243766 0 3.3094878 1.4851112 3.3094878 3.3094878v5.8005142c1.2725752.1438907 2.2705699 1.2131708 2.2705699 2.5240289z" fill="#e4c158"/></g></svg>