<svg height="21" viewBox="0 0 21 21" width="21" xmlns="http://www.w3.org/2000/svg"><path d="m19.8409167 0h-18.68183337c-.64020833 0-1.15908333.518875-1.15908333 1.15908333v18.68212497c0 .6399167.518875 1.1587917 1.15908333 1.1587917h10.05754167v-8.13225h-2.73670833v-3.16925h2.73670833v-2.33741667c0-2.7125 1.6566667-4.18920833 4.0763333-4.18920833 1.1590834 0 2.155125.08604167 2.445625.12483333v2.83470834l-1.67825.000875c-1.316 0-1.570625.62533333-1.570625 1.54291666v2.02358334h3.1383334l-.408625 3.16925003h-2.7297084v8.1319583h5.3515c.6399167 0 1.1587917-.518875 1.1587917-1.1590833v-18.68183337c0-.64020833-.518875-1.15908333-1.1590833-1.15908333z" fill="#fff" fill-rule="evenodd" transform=""/></svg>