<svg viewBox="0 0 89 89" xmlns="http://www.w3.org/2000/svg"><g fill="none" fill-rule="evenodd"><circle cx="44.5" cy="44.5" r="42.5" stroke="#e4c158" stroke-width="3"/><g fill="#e4c158" fill-rule="nonzero" transform="translate(22.71066 22.71066)"><path d="m3.883249 18.984772h22.436548v1.294416h-22.436548z"/><path d="m3.883249 24.593909h20.279188v1.294416h-20.279188z"/><path d="m3.883249 30.203046h14.238579v1.294416h-14.238579z"/><path d="m3.883249 35.812183h1.294416v1.294416h-1.294416z"/><path d="m6.903553 35.812183h1.294416v1.294416h-1.294416z"/><path d="m9.923858 35.812183h1.294416v1.294416h-1.294416z"/><path d="m42.9610296 17.3628442-1.9902074-1.9902074c-.7977987-.7977987-2.1875125-.7977987-2.9853112 0l-7.0600893 7.0600893v-22.4327261h-18.5638315l-12.3615902 12.3615902v31.21709h30.9254217v-11.1949169l12.0356079-12.0356079c.8235341-.8235341.8235341-2.161777 0-2.9853112zm-31.0112065-14.9608697v9.5478486h-9.5478486zm-10.54295232 39.7698349v-28.8151155h11.94982312v-11.94982312h16.1704355v22.44130462l-10.5686878 10.5686878-1.2438797 6.2108198 6.2108198-1.2438797 5.5931692-5.5931692v8.3811753zm18.62388082-5.9877793 2.1188847 2.1188847-2.6507505.5318658zm3.5514909 1.5612835-2.9853112-2.9853112 13.9142952-13.9142951 2.9853111 2.9853111zm14.9093989-14.9093989-2.9853112-2.9853112.9951037-.9951037 2.9853112 2.9853112zm3.4742845-3.482863-1.4926556 1.4926556-2.9853111-2.9853112 1.4926555-1.4926556c.2659329-.2659329.7291709-.2659329.9951038 0l1.9902074 1.9902075c.2745114.2745113.2745114.7205923 0 .9951037z"/><path d="m20.644077 13.3756345h1.41893v-4.25678993h4.25679v-1.41892998h-4.25679v-4.24813794h-1.41893v4.24813794h-4.2481379v1.41892998h4.2481379z"/></g></g></svg>