<svg version="1.1" {...props}>
            <defs>
                <polygon points="0 0.0181481481 115.401855 0.0181481481 115.401855 11.6277778 0 11.6277778" />
            </defs>
            <g stroke="none" strokeWidth="1" fill="none" fillRule="evenodd">
                <g transform="translate(-87.000000, -55.000000)">
                    <g transform="translate(0.000000, 40.000000)">
                        <g transform="translate(87.000000, 15.000000)">
                            <path
                                d="M57.8250279,35.0473148 C48.6603799,35.0473148 41.2046257,27.5897222 41.2046257,18.4236111 C41.2046257,9.25814815 48.6603799,1.80055556 57.8250279,1.80055556 C66.9890279,1.80055556 74.4447821,9.25814815 74.4447821,18.4236111 C74.4447821,27.5897222 66.9890279,35.0473148 57.8250279,35.0473148 Z M57.8250279,0.529537037 C47.9591955,0.529537037 39.9338101,8.55685185 39.9338101,18.4236111 C39.9338101,28.2910185 47.9591955,36.3176852 57.8250279,36.3176852 C67.6902123,36.3176852 75.7162458,28.2910185 75.7162458,18.4236111 C75.7162458,8.55685185 67.6902123,0.529537037 57.8250279,0.529537037 Z"
                                fill="#192040"
                            />
                            <path
                                d="M42.7417877,18.4242593 C42.7417877,10.0923148 49.4944134,3.33861111 57.8250279,3.33861111 C66.1556425,3.33861111 72.9082682,10.0923148 72.9082682,18.4242593 C72.9082682,26.7562037 66.1556425,33.5099074 57.8250279,33.5099074 C49.4944134,33.5099074 42.7417877,26.7562037 42.7417877,18.4242593"
                                fill="#192040"
                            />
                            <polyline
                                fill="#FFFFFE"
                                points="66.5153073 9.73259259 65.076 10.7774074 65.6307263 12.4755556 64.1901229 11.4268519 62.7449832 12.4755556 63.2990615 10.7774074 61.8629944 9.73259259 63.6360447 9.73259259 64.1901229 8.04416667 64.7383687 9.73259259 66.5153073 9.73259259"
                            />
                            <polyline
                                fill="#FFFFFE"
                                points="69.5526927 15.2580556 68.1140335 16.3035185 68.6668156 18.0003704 67.2255642 16.9536111 65.7823687 18.0003704 66.3332067 16.3035185 64.901676 15.2580556 66.6734302 15.2580556 67.2255642 13.5702778 67.7757542 15.2580556 69.5526927 15.2580556"
                            />
                            <polyline
                                fill="#FFFFFE"
                                points="57.1517095 7.6475 57.6999553 5.96037037 58.2520894 7.6475 60.0264358 7.6475 58.5897207 8.69425926 59.1418547 10.390463 57.6999553 9.34111111 56.259352 10.390463 56.8147263 8.69425926 55.3734749 7.6475 57.1517095 7.6475"
                            />
                            <polyline
                                fill="#FFFFFE"
                                points="50.6738547 9.73259259 51.2233966 8.04416667 51.7761788 9.73259259 53.5505251 9.73259259 52.1157542 10.7774074 52.6672402 12.4755556 51.2233966 11.4268519 49.7840894 12.4755556 50.3362235 10.7774074 48.8982123 9.73259259 50.6738547 9.73259259"
                            />
                            <polyline
                                fill="#FFFFFE"
                                points="48.0272402 15.2580556 48.575486 13.5702778 49.1295642 15.2580556 50.9019665 15.2580556 49.4678436 16.3035185 50.0206257 18.0003704 48.575486 16.9536111 47.1348827 18.0003704 47.6896089 16.3035185 46.2503017 15.2580556 48.0272402 15.2580556"
                            />
                            <path
                                d="M60.2150168,26.2221296 C60.928514,25.5616667 61.3827933,24.6289815 61.3827933,23.5809259 C61.3827933,21.590463 59.7704581,19.9765741 57.7796648,19.9765741 C55.7882235,19.9765741 54.1745922,21.590463 54.1745922,23.5809259 C54.1745922,24.6140741 54.6139665,25.5396296 55.3112626,26.1955556 C52.3723799,25.5953704 49.2384358,23.6567593 46.1854972,19.4275926 C46.1887374,19.4496296 46.1932737,19.4710185 46.197162,19.4924074 C46.9035307,25.2926852 51.8319106,29.7869444 57.8198436,29.7927778 C57.8224358,29.7927778 57.8237318,29.7927778 57.826324,29.7927778 C57.8276201,29.7927778 57.8302123,29.7927778 57.8315084,29.7927778 C63.8207374,29.7869444 68.7478212,25.292037 69.455486,19.4924074 C69.4567821,19.4710185 69.4632626,19.4496296 69.4645587,19.4275926 C66.3688492,23.7163889 63.1901899,25.6511111 60.2150168,26.2221296"
                                fill="#FFFFFE"
                            />
                            <path
                                d="M31.9699888,46.5402778 L30.0971397,50.9684259 L33.8609832,50.9684259 L31.9699888,46.5402778 Z M28.9449162,53.6874074 C28.5126704,54.6790741 28.854838,55.0835185 30.3492291,55.0835185 L30.3492291,55.4691667 L26.1356425,55.4691667 L26.1356425,55.0835185 C27.6481788,55.0835185 27.7376089,54.7717593 28.2962235,53.4851852 L32.2577207,44.1337037 L32.4923128,44.1337037 L36.4719553,53.4851852 C37.0299218,54.7717593 37.12,55.0835185 38.6143911,55.0835185 L38.6143911,55.4691667 L33.6270391,55.4691667 L33.6270391,55.0835185 C35.1214302,55.0835185 35.4635978,54.6972222 35.031352,53.6874074 L34.1668603,51.6476852 L29.8087598,51.6476852 L28.9449162,53.6874074 Z"
                                fill="#777776"
                            />
                            <path
                                d="M45.0967821,52.9336111 C45.0967821,54.8812963 45.2225028,55.0835185 46.2308603,55.0835185 L46.2308603,55.4691667 L42.7016089,55.4691667 L42.7016089,55.0835185 C43.6924693,55.0835185 43.8356872,54.8812963 43.8356872,52.9336111 L43.8356872,51.8680556 C43.8356872,50.6741667 43.4760223,49.9022222 42.5395978,49.9022222 C41.9090503,49.9022222 40.6842458,50.6009259 40.6842458,51.7397222 L40.6842458,52.9336111 C40.6842458,54.8443519 40.8112626,55.0835185 41.8014749,55.0835185 L41.8014749,55.4691667 L37.9831955,55.4691667 L37.9831955,55.0835185 C39.1723575,55.0835185 39.4063017,54.7717593 39.4063017,52.9336111 L39.4063017,52.0151852 C39.4063017,50.1776852 39.1723575,49.8840741 37.9831955,49.8840741 L37.9831955,49.4984259 L40.3783687,49.0388889 C40.4677989,49.2223148 40.6304581,49.975463 40.6842458,50.3617593 C41.1709274,49.7369444 41.9816313,49.0388889 43.0262793,49.0388889 C44.124067,49.0388889 44.6826816,49.5716667 44.9347709,50.4168519 C45.3488715,49.8108333 46.3928715,49.0388889 47.4556648,49.0388889 C49.0582793,49.0388889 49.5268156,50.2152778 49.5268156,51.7766667 L49.5268156,52.9336111 C49.5268156,54.7717593 49.7601117,55.0835185 50.9492737,55.0835185 L50.9492737,55.4691667 L47.1309944,55.4691667 L47.1309944,55.0835185 C48.1218547,55.0835185 48.2482235,54.8812963 48.2482235,52.9336111 L48.2482235,51.8680556 C48.2482235,50.6741667 47.9060559,49.9022222 46.9689832,49.9022222 C46.3572291,49.9022222 45.0967821,50.6009259 45.0967821,51.7397222 L45.0967821,52.9336111"
                                fill="#777776"
                            />
                            <path
                                d="M55.361162,51.262037 C55.5588156,50.6741667 55.2522905,49.7738889 54.0637765,49.7738889 C53.2893631,49.7738889 52.6231732,50.3617593 52.3710838,51.262037 L55.361162,51.262037 Z M54.6035978,55.0102778 C55.1985028,55.0102778 56.0623464,54.6609259 56.5853184,54.1650926 L56.9086927,54.569537 C56.2794413,55.2487963 55.1803575,55.7815741 54.1538547,55.7815741 C52.1734302,55.7815741 50.822905,54.2564815 50.822905,52.4008333 C50.822905,50.4537963 52.4793073,49.0388889 54.1538547,49.0388889 C55.7564693,49.0388889 57.0350615,50.3617593 56.6034637,51.9419444 L52.2628603,51.9419444 C52.0464134,53.6686111 52.7495419,55.0102778 54.6035978,55.0102778 Z"
                                fill="#777776"
                            />
                            <path
                                d="M62.5447374,51.0416667 C62.2019218,51.0416667 61.9141899,50.7292593 61.9141899,50.3799074 C61.9141899,49.9942593 61.697743,49.7738889 61.3380782,49.7738889 C60.9239777,49.7738889 59.9512626,50.4537963 59.9512626,51.9237963 L59.9512626,52.9336111 C59.9512626,54.7717593 60.1677095,55.0835185 61.3737207,55.0835185 L61.3737207,55.4691667 L57.2495642,55.4691667 L57.2495642,55.0835185 C58.4387263,55.0835185 58.6733184,54.7717593 58.6733184,52.9336111 L58.6733184,52.0151852 C58.6733184,50.1776852 58.4387263,49.8840741 57.2495642,49.8840741 L57.2495642,49.4984259 L59.6447374,49.0388889 C59.7348156,49.2223148 59.8968268,49.975463 59.9512626,50.3617593 C60.3122235,49.6267593 61.1216313,49.0388889 61.842257,49.0388889 C62.8324693,49.0388889 63.2647151,49.7187963 63.2647151,50.1776852 C63.2647151,50.5821296 63.1027039,51.0416667 62.5447374,51.0416667"
                                fill="#777776"
                            />
                            <path
                                d="M65.7493184,47.2383333 C65.3177207,47.2383333 64.9574078,46.8708333 64.9574078,46.4119444 C64.9574078,45.9705556 65.3177207,45.6030556 65.7493184,45.6030556 C66.1815642,45.6030556 66.5425251,45.9705556 66.5425251,46.4119444 C66.5425251,46.8708333 66.1815642,47.2383333 65.7493184,47.2383333 Z M63.6963128,55.4691667 L63.6963128,55.0835185 C64.8854749,55.0835185 65.120067,54.7717593 65.120067,52.9336111 L65.120067,52.0151852 C65.120067,50.1776852 64.8854749,49.8840741 63.6963128,49.8840741 L63.6963128,49.4984259 L66.3980112,49.0388889 L66.3980112,52.9336111 C66.3980112,54.7717593 66.6144581,55.0835185 67.8204693,55.0835185 L67.8204693,55.4691667 L63.6963128,55.4691667 Z"
                                fill="#777776"
                            />
                            <path
                                d="M69.4950168,52.5667593 C69.4950168,54.0367593 70.1974972,55.0102778 71.6743911,55.0102778 C72.268,55.0102778 73.0067709,54.7348148 73.6010279,54.1650926 L73.906905,54.569537 C73.2232179,55.3226852 72.2505028,55.7815741 71.223352,55.7815741 C69.2247821,55.7815741 68.0356201,54.4036111 68.0356201,52.5667593 C68.0356201,50.3987037 69.7833966,49.0388889 71.223352,49.0388889 C72.717743,49.0388889 73.3664358,49.6818519 73.3664358,50.3617593 C73.3664358,50.6560185 73.1862793,51.1518519 72.5745251,51.1518519 C72.1785698,51.1518519 71.8720447,50.8212963 71.8720447,50.4168519 C71.8720447,49.8108333 71.5480223,49.6267593 71.223352,49.6267593 C70.2694302,49.6267593 69.4950168,50.8757407 69.4950168,52.5667593"
                                fill="#777776"
                            />
                            <path
                                d="M78.1379888,52.1260185 C76.4265028,52.5298148 75.6527374,53.1358333 75.6527374,53.9440741 C75.6527374,54.5319444 76.0493408,54.8812963 76.4990838,54.8812963 C76.8775419,54.8812963 77.3097877,54.752963 78.1379888,53.9998148 L78.1379888,52.1260185 Z M79.3977877,55.6713889 C78.6959553,55.6713889 78.2630615,55.2669444 78.1736313,54.6058333 C77.2916425,55.4140741 76.6429497,55.7083333 75.9229721,55.7083333 C75.0396872,55.7083333 74.3015642,55.1386111 74.3015642,54.1650926 C74.3015642,52.6030556 76.0849832,51.9237963 78.1379888,51.5562963 C78.1379888,50.1776852 77.9578324,49.6267593 76.9306816,49.6267593 C76.516581,49.6267593 75.9048268,49.9210185 75.9048268,50.5088889 C75.9048268,50.8757407 75.6352402,51.1518519 75.2924246,51.1518519 C74.9321117,51.1518519 74.6625251,50.8757407 74.6625251,50.5088889 C74.6625251,49.6267593 75.7959553,49.0388889 76.9488268,49.0388889 C78.6959553,49.0388889 79.415933,49.792037 79.415933,51.5375 L79.415933,54.3115741 C79.415933,54.7717593 79.5597989,55.0284259 79.8300335,55.0284259 C80.010838,55.0284259 80.2084916,54.8812963 80.3348603,54.752963 L80.5869497,55.1016667 C80.2447821,55.4691667 79.7943911,55.6713889 79.3977877,55.6713889 Z"
                                fill="#777776"
                            />
                            <path
                                d="M85.7732514,49.0388889 C87.3933631,49.0388889 88.1139888,50.2152778 88.1139888,51.7766667 L88.1139888,52.9336111 C88.1139888,54.7717593 88.3304358,55.0835185 89.5364469,55.0835185 L89.5364469,55.4691667 L85.4129385,55.4691667 L85.4129385,55.0835185 C86.5826592,55.0835185 86.8347486,54.7717593 86.8347486,52.9336111 L86.8347486,51.8680556 C86.8347486,50.6741667 86.420648,49.9022222 85.3403575,49.9022222 C84.3501453,49.9022222 83.2698547,50.7292593 83.2698547,51.7397222 L83.2698547,52.9336111 C83.2698547,54.8262037 83.4143687,55.0835185 84.5303017,55.0835185 L84.5303017,55.4691667 L80.5681564,55.4691667 L80.5681564,55.0835185 C81.7573184,55.0835185 81.9919106,54.7717593 81.9919106,52.9336111 L81.9919106,52.0151852 C81.9919106,50.1776852 81.7573184,49.8840741 80.5681564,49.8840741 L80.5681564,49.4984259 L82.9633296,49.0388889 C83.0540559,49.2223148 83.215419,49.975463 83.2698547,50.3617593 C83.7558883,49.7369444 84.5840894,49.0388889 85.7732514,49.0388889"
                                fill="#777776"
                            />
                            <g transform="translate(0.000000, 58.333333)">
                                <path
                                    d="M5.83499441,2.42537037 L3.96149721,6.85287037 L7.72534078,6.85287037 L5.83499441,2.42537037 Z M2.80927374,9.57185185 C2.37702793,10.5641667 2.71919553,10.9686111 4.21358659,10.9686111 L4.21358659,11.3542593 L0,11.3542593 L0,10.9686111 C1.51253631,10.9686111 1.60261453,10.6562037 2.16058101,9.36962963 L6.12272626,0.0181481481 L6.35667039,0.0181481481 L10.3363128,9.36962963 C10.8942793,10.6562037 10.9843575,10.9686111 12.4787486,10.9686111 L12.4787486,11.3542593 L7.49139665,11.3542593 L7.49139665,10.9686111 C8.98578771,10.9686111 9.32795531,10.5823148 8.8957095,9.57185185 L8.03121788,7.53277778 L3.67311732,7.53277778 L2.80927374,9.57185185 Z"
                                    fill="#777776"
                                    mask="url(#mask-2)"
                                />
                                <path
                                    d="M17.3578771,7.11018519 C17.0338547,6.24685185 16.3501676,5.65898148 15.5394637,5.65898148 C14.1345028,5.65898148 13.4864581,6.81592593 13.4864581,8.28592593 C13.4864581,9.75527778 14.1345028,10.9316667 15.5394637,10.9316667 C16.3501676,10.9316667 17.0338547,10.3437963 17.3578771,9.48046296 L17.3578771,7.11018519 Z M17.3578771,3.01324074 C17.3578771,1.17509259 17.1427263,0.863333333 15.935419,0.863333333 L15.935419,0.477685185 L18.6371173,0.0181481481 L18.6371173,8.67157407 C18.6371173,10.5090741 18.8710615,10.8214815 20.0595754,10.8214815 L20.0595754,11.2071296 L17.6644022,11.6666667 C17.574324,11.4825926 17.4304581,10.8396296 17.3760223,10.5460185 C16.8718436,11.1889815 16.1518659,11.6666667 15.1616536,11.6666667 C13.4508156,11.6666667 12.0277095,10.1415741 12.0277095,8.28592593 C12.0277095,6.43027778 13.4508156,4.92398148 15.1616536,4.92398148 C16.0624358,4.92398148 16.8180559,5.32777778 17.3578771,6.00768519 L17.3578771,3.01324074 Z"
                                    fill="#777776"
                                    mask="url(#mask-2)"
                                />
                                <path
                                    d="M25.6048939,7.11018519 C25.2808715,6.24685185 24.5965363,5.65898148 23.7858324,5.65898148 C22.3815196,5.65898148 21.7328268,6.81592593 21.7328268,8.28592593 C21.7328268,9.75527778 22.3815196,10.9316667 23.7858324,10.9316667 C24.5965363,10.9316667 25.2808715,10.3437963 25.6048939,9.48046296 L25.6048939,7.11018519 Z M25.6048939,3.01324074 C25.6048939,1.17509259 25.389095,0.863333333 24.1824358,0.863333333 L24.1824358,0.477685185 L26.883486,0.0181481481 L26.883486,8.67157407 C26.883486,10.5090741 27.1180782,10.8214815 28.3059441,10.8214815 L28.3059441,11.2071296 L25.911419,11.6666667 C25.8213408,11.4825926 25.6768268,10.8396296 25.6223911,10.5460185 C25.1182123,11.1889815 24.3988827,11.6666667 23.4086704,11.6666667 C21.6971844,11.6666667 20.2753743,10.1415741 20.2753743,8.28592593 C20.2753743,6.43027778 21.6971844,4.92398148 23.4086704,4.92398148 C24.3081564,4.92398148 25.0650726,5.32777778 25.6048939,6.00768519 L25.6048939,3.01324074 Z"
                                    fill="#777776"
                                    mask="url(#mask-2)"
                                />
                                <path
                                    d="M30.754905,3.12342593 C30.3226592,3.12342593 29.9629944,2.75592593 29.9629944,2.29638889 C29.9629944,1.85564815 30.3226592,1.48814815 30.754905,1.48814815 C31.1871508,1.48814815 31.5474637,1.85564815 31.5474637,2.29638889 C31.5474637,2.75592593 31.1871508,3.12342593 30.754905,3.12342593 Z M28.7018994,11.3542593 L28.7018994,10.9686111 C29.8904134,10.9686111 30.1250056,10.6562037 30.1250056,8.8187037 L30.1250056,7.90027778 C30.1250056,6.06277778 29.8904134,5.76916667 28.7018994,5.76916667 L28.7018994,5.38287037 L31.4029497,4.92398148 L31.4029497,8.8187037 C31.4029497,10.6562037 31.6193966,10.9686111 32.8254078,10.9686111 L32.8254078,11.3542593 L28.7018994,11.3542593 Z"
                                    fill="#777776"
                                    mask="url(#mask-2)"
                                />
                                <path
                                    d="M34.8596201,8.4512037 C34.8596201,9.9212037 35.5621006,10.8947222 37.0389944,10.8947222 C37.6332514,10.8947222 38.3713743,10.6192593 38.9656313,10.049537 L39.2721564,10.4539815 C38.5871732,11.2071296 37.6151061,11.6666667 36.5886034,11.6666667 C34.5900335,11.6666667 33.4015196,10.2880556 33.4015196,8.4512037 C33.4015196,6.28314815 35.148,4.92398148 36.5886034,4.92398148 C38.0829944,4.92398148 38.7310391,5.5662963 38.7310391,6.24685185 C38.7310391,6.54046296 38.5515307,7.0362963 37.9397765,7.0362963 C37.5431732,7.0362963 37.236648,6.70574074 37.236648,6.3012963 C37.236648,5.69527778 36.9126257,5.51185185 36.5886034,5.51185185 C35.6346816,5.51185185 34.8596201,6.76083333 34.8596201,8.4512037"
                                    fill="#777776"
                                    mask="url(#mask-2)"
                                />
                                <path
                                    d="M39.1269944,5.8787037 L39.1269944,5.43796296 C40.2072849,5.19944444 40.6032402,4.4087037 40.730257,3.21481481 L41.3420112,3.21481481 L41.3420112,5.23638889 L42.9083352,5.23638889 L42.9083352,5.8787037 L41.3420112,5.8787037 L41.3420112,9.59064815 C41.3420112,10.4721296 41.5759553,10.9316667 42.152067,10.9316667 C42.4767374,10.9316667 42.9083352,10.6925 43.3224358,10.2880556 L43.6289609,10.6011111 C43.1247821,11.2252778 42.3322235,11.6666667 41.7379665,11.6666667 C40.7477542,11.6666667 40.063419,11.0230556 40.063419,9.59064815 L40.063419,5.8787037 L39.1269944,5.8787037"
                                    fill="#777776"
                                    mask="url(#mask-2)"
                                />
                                <path
                                    d="M46.0416313,3.12342593 C45.6100335,3.12342593 45.2503687,2.75592593 45.2503687,2.29638889 C45.2503687,1.85564815 45.6100335,1.48814815 46.0416313,1.48814815 C46.4745251,1.48814815 46.834838,1.85564815 46.834838,2.29638889 C46.834838,2.75592593 46.4745251,3.12342593 46.0416313,3.12342593 Z M43.9892737,11.3542593 L43.9892737,10.9686111 C45.1777877,10.9686111 45.4123799,10.6562037 45.4123799,8.8187037 L45.4123799,7.90027778 C45.4123799,6.06277778 45.1777877,5.76916667 43.9892737,5.76916667 L43.9892737,5.38287037 L46.690324,4.92398148 L46.690324,8.8187037 C46.690324,10.6562037 46.9067709,10.9686111 48.1127821,10.9686111 L48.1127821,11.3542593 L43.9892737,11.3542593 Z"
                                    fill="#777776"
                                    mask="url(#mask-2)"
                                />
                                <path
                                    d="M51.9667039,5.62203704 C50.4898101,5.62203704 49.7873296,6.81592593 49.7873296,8.28592593 C49.7873296,9.75527778 50.4898101,10.950463 51.9667039,10.950463 C53.461095,10.950463 54.1447821,9.75527778 54.1447821,8.28592593 C54.1447821,6.81592593 53.461095,5.62203704 51.9667039,5.62203704 Z M51.9667039,11.6666667 C49.966838,11.6666667 48.3292291,10.1415741 48.3292291,8.28592593 C48.3292291,6.43027778 49.966838,4.92398148 51.9667039,4.92398148 C53.9652737,4.92398148 55.6041788,6.43027778 55.6041788,8.28592593 C55.6041788,10.1415741 53.9652737,11.6666667 51.9667039,11.6666667 Z"
                                    fill="#777776"
                                    mask="url(#mask-2)"
                                />
                                <path
                                    d="M60.8261229,4.92398148 C62.4462346,4.92398148 63.1668603,6.09972222 63.1668603,7.66111111 L63.1668603,8.8187037 C63.1668603,10.6562037 63.3833073,10.9686111 64.5893184,10.9686111 L64.5893184,11.3542593 L60.465162,11.3542593 L60.465162,10.9686111 C61.6355307,10.9686111 61.8876201,10.6562037 61.8876201,8.8187037 L61.8876201,7.75314815 C61.8876201,6.55861111 61.4735196,5.78731481 60.3932291,5.78731481 C59.4023687,5.78731481 58.3220782,6.6137037 58.3220782,7.62416667 L58.3220782,8.8187037 C58.3220782,10.7112963 58.4665922,10.9686111 59.5825251,10.9686111 L59.5825251,11.3542593 L55.6210279,11.3542593 L55.6210279,10.9686111 C56.8101899,10.9686111 57.0441341,10.6562037 57.0441341,8.8187037 L57.0441341,7.90027778 C57.0441341,6.06277778 56.8101899,5.76916667 55.6210279,5.76916667 L55.6210279,5.38287037 L58.0162011,4.92398148 C58.1069274,5.10740741 58.2682905,5.86055556 58.3220782,6.24685185 C58.8087598,5.62203704 59.6369609,4.92398148 60.8261229,4.92398148"
                                    fill="#777776"
                                    mask="url(#mask-2)"
                                />
                                <path
                                    d="M76.5094525,11.152037 C76.4193743,10.7112963 76.1309944,10.2699074 75.8970503,10.1046296 C74.9787709,11.0787963 73.8084022,11.6666667 72.5479553,11.6666667 C69.5047374,11.6666667 67.019486,9.03972222 67.019486,5.84240741 C67.019486,2.64509259 69.5047374,0.0181481481 72.5479553,0.0181481481 C73.8084022,0.0181481481 74.9787709,0.587222222 75.8970503,1.57953704 C76.1309944,1.39611111 76.4193743,0.991666667 76.5094525,0.532777778 L76.8697654,0.532777778 L76.8697654,4.57462963 L76.5094525,4.57462963 C76.0052737,2.1862037 74.6184581,0.734351852 72.6198883,0.734351852 C69.7386816,0.734351852 68.6940335,3.56416667 68.6940335,5.84240741 C68.6940335,8.12064815 69.7386816,10.9316667 72.6198883,10.9316667 C74.6184581,10.9316667 76.0052737,9.46166667 76.5094525,7.11018519 L76.8697654,7.11018519 L76.8697654,11.152037 L76.5094525,11.152037"
                                    fill="#777776"
                                    mask="url(#mask-2)"
                                />
                                <path
                                    d="M82.6133855,7.14712963 C82.8110391,6.55861111 82.504514,5.65898148 81.316648,5.65898148 C80.5415866,5.65898148 79.8753966,6.24685185 79.6233073,7.14712963 L82.6133855,7.14712963 Z M81.8564693,10.8947222 C82.4513743,10.8947222 83.3152179,10.5460185 83.8381899,10.049537 L84.1615642,10.4539815 C83.5316648,11.1338889 82.432581,11.6666667 81.4067263,11.6666667 C79.4256536,11.6666667 78.0751285,10.1415741 78.0751285,8.28592593 C78.0751285,6.33824074 79.7321788,4.92398148 81.4067263,4.92398148 C83.0086927,4.92398148 84.287933,6.24685185 83.8556872,7.82638889 L79.5157318,7.82638889 C79.2992849,9.55305556 80.0017654,10.8947222 81.8564693,10.8947222 Z"
                                    fill="#777776"
                                    mask="url(#mask-2)"
                                />
                                <path
                                    d="M89.7075307,4.92398148 C91.3276425,4.92398148 92.0482682,6.09972222 92.0482682,7.66111111 L92.0482682,8.8187037 C92.0482682,10.6562037 92.2647151,10.9686111 93.4707263,10.9686111 L93.4707263,11.3542593 L89.3465698,11.3542593 L89.3465698,10.9686111 C90.5169385,10.9686111 90.7690279,10.6562037 90.7690279,8.8187037 L90.7690279,7.75314815 C90.7690279,6.55861111 90.3549274,5.78731481 89.2746369,5.78731481 C88.2844246,5.78731481 87.203486,6.6137037 87.203486,7.62416667 L87.203486,8.8187037 C87.203486,10.7112963 87.348,10.9686111 88.463933,10.9686111 L88.463933,11.3542593 L84.5024358,11.3542593 L84.5024358,10.9686111 C85.6915978,10.9686111 85.9255419,10.6562037 85.9255419,8.8187037 L85.9255419,7.90027778 C85.9255419,6.06277778 85.6915978,5.76916667 84.5024358,5.76916667 L84.5024358,5.38287037 L86.8976089,4.92398148 C86.9870391,5.10740741 87.1496983,5.86055556 87.203486,6.24685185 C87.6901676,5.62203704 88.5183687,4.92398148 89.7075307,4.92398148"
                                    fill="#777776"
                                    mask="url(#mask-2)"
                                />
                                <path
                                    d="M93.3262123,5.8787037 L93.3262123,5.43796296 C94.4065028,5.19944444 94.8031061,4.4087037 94.9294749,3.21481481 L95.5412291,3.21481481 L95.5412291,5.23638889 L97.1082011,5.23638889 L97.1082011,5.8787037 L95.5412291,5.8787037 L95.5412291,9.59064815 C95.5412291,10.4721296 95.7751732,10.9316667 96.351933,10.9316667 C96.6759553,10.9316667 97.1082011,10.6925 97.5223017,10.2880556 L97.8281788,10.6011111 C97.324648,11.2252778 96.5314413,11.6666667 95.9378324,11.6666667 C94.9469721,11.6666667 94.2619888,11.0230556 94.2619888,9.59064815 L94.2619888,5.8787037 L93.3262123,5.8787037"
                                    fill="#777776"
                                    mask="url(#mask-2)"
                                />
                                <path
                                    d="M102.546592,7.14712963 C102.744246,6.55861111 102.437721,5.65898148 101.249207,5.65898148 C100.474793,5.65898148 99.8086034,6.24685185 99.556514,7.14712963 L102.546592,7.14712963 Z M101.789028,10.8947222 C102.383933,10.8947222 103.248425,10.5460185 103.770749,10.049537 L104.094123,10.4539815 C103.464872,11.1338889 102.365788,11.6666667 101.339285,11.6666667 C99.3588603,11.6666667 98.0083352,10.1415741 98.0083352,8.28592593 C98.0083352,6.33824074 99.6647374,4.92398148 101.339285,4.92398148 C102.941899,4.92398148 104.220492,6.24685185 103.788894,7.82638889 L99.4489385,7.82638889 C99.2318436,9.55305556 99.9349721,10.8947222 101.789028,10.8947222 Z"
                                    fill="#777776"
                                    mask="url(#mask-2)"
                                />
                                <path
                                    d="M109.730168,6.92611111 C109.387352,6.92611111 109.09962,6.6137037 109.09962,6.265 C109.09962,5.8787037 108.883173,5.65898148 108.523508,5.65898148 C108.109408,5.65898148 107.136693,6.33824074 107.136693,7.80824074 L107.136693,8.8187037 C107.136693,10.6562037 107.35314,10.9686111 108.559151,10.9686111 L108.559151,11.3542593 L104.435642,11.3542593 L104.435642,10.9686111 C105.624156,10.9686111 105.858749,10.6562037 105.858749,8.8187037 L105.858749,7.90027778 C105.858749,6.06277778 105.624156,5.76916667 104.435642,5.76916667 L104.435642,5.38287037 L106.830168,4.92398148 C106.920246,5.10740741 107.082257,5.86055556 107.136693,6.24685185 C107.497654,5.51185185 108.307061,4.92398148 109.027687,4.92398148 C110.017899,4.92398148 110.450145,5.60388889 110.450145,6.06277778 C110.450145,6.46657407 110.288134,6.92611111 109.730168,6.92611111"
                                    fill="#777776"
                                    mask="url(#mask-2)"
                                />
                                <path
                                    d="M113.259419,11.6666667 C112.016469,11.6666667 111.332782,10.3625926 111.332782,11.6666667 L110.971821,11.6666667 L110.971821,8.98398148 L111.332782,8.98398148 C111.332782,9.81101852 112.016469,11.0418519 113.313855,11.0418519 C113.889966,11.0418519 114.321564,10.6192593 114.321564,10.1046296 C114.321564,9.64574074 113.944402,9.31453704 113.313855,8.98398148 L112.322994,8.43305556 C111.440358,7.95537037 111.116335,7.18342593 111.116335,6.59555556 C111.116335,5.60388889 112.016469,4.92398148 112.952894,4.92398148 C114.304067,4.92398148 114.573654,5.8787037 114.573654,4.92398148 L114.952112,4.92398148 L114.952112,7.05444444 L114.573654,7.05444444 C114.573654,6.28314815 114.033832,5.51185185 113.114905,5.51185185 C112.503151,5.51185185 112.196626,5.84240741 112.196626,6.3012963 C112.196626,6.74268519 112.503151,6.98185185 113.295709,7.42259259 L114.159553,7.90027778 C114.952112,8.35916667 115.401855,9.00212963 115.401855,9.66388889 C115.401855,10.8765741 114.429788,11.6666667 113.259419,11.6666667"
                                    fill="#777776"
                                    mask="url(#mask-2)"
                                />
                            </g>
                        </g>
                    </g>
                </g>
            </g>
        </svg>