<svg viewBox="0 0 246 26" 
  xmlns="http://www.w3.org/2000/svg">
  <g fill="#fff" fill-rule="evenodd">
    <path d="m12.754 1.531c-6.401 0-11.608 5.23-11.608 11.66 0 6.429 5.207 11.659 11.608 11.659s11.608-5.23 11.608-11.659c0-6.43-5.207-11.66-11.608-11.66zm0 24.469c-7.033 0-12.754-5.746-12.754-12.809 0-7.064 5.721-12.81 12.754-12.81 7.031 0 12.753 5.746 12.753 12.81 0 7.063-5.722 12.809-12.753 12.809z"/>
    <path d="m18.888 7.029-1.016.741.392 1.203-1.017-.743-1.02.743.391-1.203-1.014-.741h1.252l.391-1.197.387 1.197z"/>
    <path d="m21.032 10.946-1.015.741.39 1.203-1.017-.742-1.019.742.389-1.203-1.011-.741h1.251l.39-1.197.388 1.197z"/>
    <path d="m12.279 5.551.387-1.196.389 1.196h1.253l-1.014.742.39 1.202-1.018-.743-1.017.743.392-1.202-1.018-.742z"/>
    <path d="m7.706 7.029.388-1.197.39 1.197h1.252l-1.012.741.389 1.203-1.019-.743-1.016.743.39-1.203-1.015-.741z"/>
    <path d="m5.838 10.946.387-1.197.391 1.197h1.251l-1.012.741.39 1.203-1.02-.742-1.017.742.392-1.203-1.017-.741z"/>
    <path d="m14.441 18.718a2.549 2.549 0 0 0 -1.719-4.427 2.55 2.55 0 0 0 -1.743 4.409c-2.074-.426-4.286-1.8-6.442-4.798l.009.046c.499 4.111 3.977 7.298 8.204 7.302h.008c4.228-.004 7.706-3.191 8.206-7.302 0-.016.005-.031.006-.046-2.185 3.04-4.429 4.412-6.529 4.816"/>
    <path d="m35.817 8.16-2.39 5.677h4.805zm-3.862 9.164c-.552 1.272-.115 1.79 1.793 1.79v.495h-5.381v-.495c1.932 0 2.047-.4 2.76-2.05l5.059-11.991h.299l5.082 11.991c.712 1.65.828 2.05 2.736 2.05v.495h-6.369v-.495c1.908 0 2.344-.495 1.793-1.79l-1.104-2.615h-5.564z"/>
    <path d="m52.584 16.357c0 2.498.161 2.757 1.448 2.757v.495h-4.506v-.495c1.264 0 1.449-.259 1.449-2.757v-1.366c0-1.531-.46-2.52-1.656-2.52-.805 0-2.369.895-2.369 2.355v1.531c0 2.451.161 2.757 1.426 2.757v.495h-4.875v-.495c1.518 0 1.817-.4 1.817-2.757v-1.177c0-2.356-.299-2.733-1.817-2.733v-.494l3.059-.589c.114.235.321 1.201.39 1.696.621-.801 1.656-1.696 2.99-1.696 1.402 0 2.115.683 2.437 1.766.528-.777 1.862-1.766 3.219-1.766 2.047 0 2.644 1.508 2.644 3.51v1.483c0 2.357.299 2.757 1.818 2.757v.495h-4.875v-.495c1.264 0 1.426-.259 1.426-2.757v-1.366c0-1.531-.438-2.52-1.633-2.52-.782 0-2.392.895-2.392 2.355zm12.65-2.143c.252-.754-.138-1.908-1.656-1.908-.989 0-1.84.754-2.162 1.908zm-.966 4.806c.759 0 1.862-.448 2.529-1.084l.414.519c-.805.871-2.207 1.555-3.518 1.555-2.53 0-4.254-1.956-4.254-4.335 0-2.497 2.116-4.311 4.254-4.311 2.046 0 3.679 1.696 3.127 3.722h-5.542c-.276 2.214.622 3.934 2.99 3.934z"/>
    <path d="m73.951 13.932c-.437 0-.805-.401-.805-.849 0-.495-.276-.777-.736-.777-.529 0-1.77.872-1.77 2.756v1.295c0 2.357.275 2.757 1.816 2.757v.495h-5.266v-.495c1.518 0 1.817-.4 1.817-2.757v-1.177c0-2.356-.299-2.733-1.817-2.733v-.494l3.059-.589c.114.235.321 1.201.391 1.696.46-.942 1.494-1.696 2.414-1.696 1.264 0 1.816.871 1.816 1.46 0 .518-.206 1.108-.919 1.108m4.095-4.877c-.552 0-1.012-.472-1.012-1.06 0-.566.46-1.037 1.012-1.037s1.012.471 1.012 1.037c0 .588-.46 1.06-1.012 1.06zm-2.621 10.554v-.495c1.517 0 1.816-.4 1.816-2.757v-1.177c0-2.356-.299-2.733-1.816-2.733v-.494l3.449-.589v4.993c0 2.357.275 2.757 1.816 2.757v.495z"/>
    <path d="m81.91 15.887c0 1.884.897 3.133 2.783 3.133.758 0 1.701-.353 2.459-1.084l.392.519c-.874.966-2.116 1.555-3.427 1.555-2.552 0-4.07-1.768-4.07-4.123 0-2.78 2.23-4.523 4.07-4.523 1.908 0 2.737.824 2.737 1.696 0 .377-.23 1.012-1.012 1.012-.506 0-.897-.423-.897-.942 0-.777-.414-1.012-.828-1.012-1.218 0-2.207 1.601-2.207 3.769"/>
    <path d="m92.029 15.321c-2.184.519-3.172 1.296-3.172 2.332 0 .754.505 1.202 1.08 1.202.483 0 1.035-.165 2.092-1.13zm1.611 4.547c-.898 0-1.449-.518-1.565-1.366-1.126 1.036-1.954 1.413-2.874 1.413-1.127 0-2.069-.73-2.069-1.979 0-2.002 2.276-2.874 4.897-3.345 0-1.767-.229-2.473-1.54-2.473-.529 0-1.311.377-1.311 1.13 0 .471-.345.824-.781.824-.46 0-.805-.353-.805-.824 0-1.13 1.448-1.884 2.92-1.884 2.23 0 3.15.966 3.15 3.203v3.558c0 .589.184.919.53.919.229 0 .482-.189.643-.354l.322.448c-.437.471-1.011.73-1.517.73z"/>
    <path d="m101.78 11.364c2.07 0 2.99 1.508 2.99 3.51v1.483c0 2.357.275 2.757 1.816 2.757v.495h-5.266v-.495c1.495 0 1.817-.4 1.817-2.757v-1.366c0-1.531-.528-2.52-1.908-2.52-1.265 0-2.645 1.06-2.645 2.355v1.531c0 2.427.184 2.757 1.609 2.757v.495h-5.058v-.495c1.517 0 1.816-.4 1.816-2.757v-1.177c0-2.356-.299-2.733-1.816-2.733v-.494l3.058-.589c.115.235.322 1.201.391 1.696.621-.801 1.679-1.696 3.196-1.696m14.191-3.204-2.391 5.677h4.806zm-3.862 9.164c-.553 1.272-.116 1.79 1.792 1.79v.495h-5.38v-.495c1.931 0 2.046-.4 2.759-2.05l5.059-11.991h.299l5.082 11.991c.713 1.65.828 2.05 2.736 2.05v.495h-6.369v-.495c1.908 0 2.346-.495 1.793-1.79l-1.104-2.615h-5.564z"/>
    <path d="m130.23 14.167c-.414-1.107-1.288-1.861-2.323-1.861-1.794 0-2.621 1.484-2.621 3.369s.827 3.392 2.621 3.392c1.035 0 1.909-.754 2.323-1.861zm0-5.253c0-2.357-.276-2.757-1.817-2.757v-.495l3.449-.589v11.096c0 2.356.299 2.757 1.817 2.757v.495l-3.059.589c-.114-.236-.299-1.061-.367-1.438-.644.825-1.564 1.438-2.829 1.438-2.185 0-4.001-1.956-4.001-4.335 0-2.38 1.816-4.311 4.001-4.311 1.15 0 2.116.518 2.806 1.389z"/>
    <path d="m139.844 14.167c-.414-1.107-1.288-1.861-2.322-1.861-1.794 0-2.622 1.484-2.622 3.369s.828 3.392 2.622 3.392c1.034 0 1.908-.754 2.322-1.861zm0-5.253c0-2.357-.276-2.757-1.817-2.757v-.495l3.45-.589v11.096c0 2.356.298 2.757 1.816 2.757v.495l-3.059.589c-.114-.236-.298-1.061-.367-1.438-.644.825-1.564 1.438-2.829 1.438-2.184 0-4.001-1.956-4.001-4.335 0-2.38 1.817-4.311 4.001-4.311 1.151 0 2.116.518 2.806 1.389zm6.119.141c-.552 0-1.012-.472-1.012-1.06 0-.566.46-1.037 1.012-1.037s1.012.471 1.012 1.037c0 .588-.46 1.06-1.012 1.06zm-2.621 10.554v-.495c1.517 0 1.816-.4 1.816-2.757v-1.177c0-2.356-.299-2.733-1.816-2.733v-.494l3.449-.589v4.993c0 2.357.276 2.757 1.817 2.757v.495zm6.945-3.722c0 1.884.897 3.133 2.782 3.133.759 0 1.702-.353 2.46-1.084l.392.519c-.874.966-2.116 1.555-3.427 1.555-2.552 0-4.07-1.768-4.07-4.123 0-2.78 2.23-4.523 4.07-4.523 1.908 0 2.737.824 2.737 1.696 0 .377-.23 1.012-1.012 1.012-.506 0-.897-.423-.897-.942 0-.777-.414-1.012-.828-1.012-1.219 0-2.207 1.601-2.207 3.769m5.451-3.299v-.565c1.38-.306 1.886-1.319 2.047-2.851h.782v2.592h2v.824h-2v4.712c0 1.107.299 1.696 1.035 1.696.414 0 .965-.282 1.495-.801l.39.401c-.643.801-1.655 1.342-2.414 1.342-1.264 0-2.138-.824-2.138-2.638v-4.712zm8.372-3.533c-.551 0-1.011-.472-1.011-1.06 0-.566.46-1.037 1.011-1.037.552 0 1.012.471 1.012 1.037 0 .588-.46 1.06-1.012 1.06zm-2.621 10.554v-.495c1.518 0 1.817-.4 1.817-2.757v-1.177c0-2.356-.299-2.733-1.817-2.733v-.494l3.45-.589v4.993c0 2.357.275 2.757 1.816 2.757v.495z"/>
    <path d="m170.757 12.259c-1.886 0-2.782 1.531-2.782 3.416s.896 3.416 2.782 3.416c1.908 0 2.782-1.531 2.782-3.416s-.874-3.416-2.782-3.416zm0 7.751c-2.553 0-4.646-1.956-4.646-4.335 0-2.38 2.093-4.311 4.646-4.311 2.552 0 4.644 1.931 4.644 4.311 0 2.379-2.092 4.335-4.644 4.335z"/>
    <path d="m181.383 11.364c2.069 0 2.989 1.508 2.989 3.51v1.483c0 2.357.276 2.757 1.817 2.757v.495h-5.266v-.495c1.494 0 1.816-.4 1.816-2.757v-1.366c0-1.531-.528-2.52-1.908-2.52-1.264 0-2.644 1.06-2.644 2.355v1.531c0 2.427.183 2.757 1.609 2.757v.495h-5.059v-.495c1.518 0 1.817-.4 1.817-2.757v-1.177c0-2.356-.299-2.733-1.817-2.733v-.494l3.059-.589c.114.235.321 1.201.391 1.696.621-.801 1.678-1.696 3.196-1.696m18.19 7.986c-.115-.566-.482-1.131-.782-1.343-1.172 1.249-2.667 2.003-4.276 2.003-3.887 0-7.06-3.369-7.06-7.469 0-4.099 3.173-7.468 7.06-7.468 1.609 0 3.104.73 4.276 2.003.3-.236.667-.754.782-1.343h.46v5.183h-.46c-.643-3.063-2.414-4.924-4.966-4.924-3.68 0-5.013 3.628-5.013 6.549 0 2.922 1.333 6.526 5.013 6.526 2.552 0 4.323-1.884 4.966-4.9h.46v5.183zm7.339-5.136c.253-.754-.137-1.908-1.655-1.908-.989 0-1.84.754-2.162 1.908zm-.966 4.806c.759 0 1.863-.448 2.53-1.084l.414.519c-.805.871-2.207 1.555-3.519 1.555-2.529 0-4.254-1.956-4.254-4.335 0-2.497 2.117-4.311 4.254-4.311 2.047 0 3.68 1.696 3.128 3.722h-5.542c-.276 2.214.621 3.934 2.989 3.934z"/>
    <path d="m215.515 11.364c2.069 0 2.989 1.508 2.989 3.51v1.483c0 2.357.275 2.757 1.816 2.757v.495h-5.265v-.495c1.494 0 1.816-.4 1.816-2.757v-1.366c0-1.531-.528-2.52-1.908-2.52-1.265 0-2.645 1.06-2.645 2.355v1.531c0 2.427.184 2.757 1.61 2.757v.495h-5.059v-.495c1.518 0 1.817-.4 1.817-2.757v-1.177c0-2.356-.299-2.733-1.817-2.733v-.494l3.059-.589c.114.235.321 1.201.39 1.696.622-.801 1.679-1.696 3.197-1.696m3.703 1.224v-.565c1.38-.306 1.886-1.319 2.047-2.851h.782v2.592h2v.824h-2v4.712c0 1.107.299 1.696 1.034 1.696.414 0 .966-.282 1.495-.801l.391.401c-.644.801-1.655 1.342-2.414 1.342-1.265 0-2.139-.824-2.139-2.638v-4.712z"/>
    <path d="m230.073 14.214c.253-.754-.137-1.908-1.655-1.908-.989 0-1.84.754-2.162 1.908zm-.965 4.806c.758 0 1.862-.448 2.529-1.084l.414.519c-.805.871-2.207 1.555-3.519 1.555-2.529 0-4.254-1.956-4.254-4.335 0-2.497 2.117-4.311 4.254-4.311 2.047 0 3.68 1.696 3.128 3.722h-5.542c-.276 2.214.621 3.934 2.99 3.934z"/>
    <path d="m238.79 13.932c-.437 0-.806-.401-.806-.849 0-.495-.275-.777-.735-.777-.529 0-1.77.872-1.77 2.756v1.295c0 2.357.275 2.757 1.816 2.757v.495h-5.266v-.495c1.518 0 1.817-.4 1.817-2.757v-1.177c0-2.356-.299-2.733-1.817-2.733v-.494l3.059-.589c.114.235.321 1.201.391 1.696.46-.942 1.494-1.696 2.414-1.696 1.264 0 1.816.871 1.816 1.46 0 .518-.206 1.108-.919 1.108m4.187 6.078c-1.586 0-2.46-1.673-2.46 0h-.484v-3.44h.484c0 1.06.874 2.639 2.506 2.639.758 0 1.311-.542 1.311-1.202 0-.589-.507-1.013-1.288-1.437l-1.288-.707c-1.104-.612-1.518-1.602-1.518-2.356 0-1.272 1.151-2.143 2.323-2.143 1.724 0 2.092 1.224 2.092 0h.484v2.732h-.484c0-.989-.689-1.978-1.862-1.978-.782 0-1.173.423-1.173 1.012 0 .566.368.872 1.403 1.437l1.104.613c1.012.589 1.586 1.414 1.586 2.261 0 1.555-1.241 2.569-2.736 2.569"/>
  </g>
</svg>