<?xml version="1.0" encoding="UTF-8"?>
<svg width="328px" height="39px" viewBox="0 0 328 39" version="1.1" xmlns="http://www.w3.org/2000/svg" xmlns:xlink="http://www.w3.org/1999/xlink">
    <!-- Generator: Sketch 51.1 (57501) - http://www.bohemiancoding.com/sketch -->
    <title>TS_Treatment_Center</title>
    <desc>Created with Sketch.</desc>
    <defs></defs>
    <g id="Page-1" stroke="none" stroke-width="1" fill="none" fill-rule="evenodd">
        <g id="Desktop-HD-Copy-4" transform="translate(-119.000000, -3683.000000)" fill="#FFFFFF" fill-rule="nonzero">
            <g id="TS_Treatment_Center" transform="translate(119.000000, 3683.000000)">
                <g id="Group" transform="translate(49.000000, 10.000000)">
                    <path d="M19.6786834,4.95652174 L19.0664577,4.95652174 L18.8915361,4.34782609 C18.454232,2.7826087 18.1918495,2.08695652 15.3931034,2.08695652 L11.4573668,2.08695652 L11.4573668,14.8695652 C11.4573668,17.9130435 11.80721,18.4347826 14.3435737,18.4347826 L14.3435737,19.0434783 L6.12225705,19.0434783 L6.12225705,18.4347826 C8.65862069,18.4347826 9.00846395,17.9130435 9.00846395,14.8695652 L9.00846395,2.08695652 L5.07272727,2.08695652 C2.27398119,2.08695652 2.01159875,2.7826087 1.57429467,4.34782609 L1.39937304,4.95652174 L0.787147335,4.95652174 L1.04952978,0.869565217 L19.5037618,0.869565217 L19.6786834,4.95652174 Z" id="Shape"></path>
                    <path d="M21.6902821,9.56521739 C19.2413793,9.56521739 18.0169279,11.5652174 18.0169279,13.9130435 C18.0169279,16.3478261 19.2413793,18.2608696 21.6902821,18.2608696 C24.2266458,18.2608696 25.3636364,16.2608696 25.3636364,13.9130435 C25.3636364,11.5652174 24.2266458,9.56521739 21.6902821,9.56521739 Z M21.6902821,19.5652174 C18.2793103,19.5652174 15.5680251,17.0434783 15.5680251,14 C15.5680251,10.9565217 18.3667712,8.52173913 21.6902821,8.52173913 C25.1012539,8.52173913 27.8125392,10.9565217 27.8125392,14 C27.8125392,17.0434783 25.1012539,19.5652174 21.6902821,19.5652174 Z" id="Shape"></path>
                    <path d="M32.7978056,19.5652174 L32.1855799,19.5652174 L28.5996865,11.3913043 C27.9874608,10.0869565 27.4626959,9.65217391 26.500627,9.65217391 L26.500627,9.04347826 L32.0106583,9.04347826 L32.0106583,9.56521739 C30.6987461,9.56521739 30.4363636,10.173913 30.8736677,11.3043478 L32.9727273,16 L35.4216301,8.86956522 L36.1213166,8.86956522 L39.1824451,16 L40.8442006,11.3043478 C41.2815047,10.0869565 41.0191223,9.56521739 39.9695925,9.56521739 L39.9695925,8.95652174 L44.2551724,8.95652174 L44.2551724,9.56521739 C43.2056426,9.56521739 42.5934169,10 42.068652,11.3043478 L39.0075235,19.4782609 L38.3952978,19.4782609 L35.4216301,12.5217391 L32.7978056,19.5652174 Z" id="Shape"></path>
                    <path d="M51.2520376,8.43478261 C53.9633229,8.43478261 55.1877743,10.3478261 55.1877743,12.9565217 L55.1877743,14.8695652 C55.1877743,17.9130435 55.5376176,18.4347826 57.5492163,18.4347826 L57.5492163,19.0434783 L50.7272727,19.0434783 L50.7272727,18.4347826 C52.7388715,18.4347826 53.0887147,17.9130435 53.0887147,14.8695652 L53.0887147,13.1304348 C53.0887147,11.1304348 52.3890282,9.91304348 50.5523511,9.91304348 C48.8905956,9.91304348 47.0539185,11.3043478 47.0539185,12.9565217 L47.0539185,14.9565217 C47.0539185,18.0869565 47.3163009,18.5217391 49.1529781,18.5217391 L49.1529781,19.1304348 L42.5059561,19.1304348 L42.5059561,18.5217391 C44.5175549,18.5217391 44.8673981,18 44.8673981,14.9565217 L44.8673981,13.4782609 C44.8673981,10.4347826 44.5175549,10 42.5059561,10 L42.5059561,9.39130435 L46.5291536,8.60869565 C46.7040752,8.86956522 46.9664577,10.173913 47.0539185,10.7826087 C47.9285266,9.56521739 49.3278997,8.43478261 51.2520376,8.43478261 Z" id="Shape"></path>
                    <path d="M61.1351097,19.5652174 C59.0360502,19.5652174 57.8990596,17.3913043 57.8990596,19.5652174 L57.2868339,19.5652174 L57.2868339,15.1304348 L57.8990596,15.1304348 C57.8990596,16.5217391 59.0360502,18.5217391 61.2225705,18.5217391 C62.1846395,18.5217391 62.9717868,17.826087 62.9717868,16.9565217 C62.9717868,16.173913 62.2721003,15.6521739 61.3100313,15.1304348 L59.6482759,14.2608696 C58.161442,13.4782609 57.6366771,12.173913 57.6366771,11.2173913 C57.6366771,9.56521739 59.123511,8.43478261 60.6978056,8.43478261 C62.9717868,8.43478261 63.4965517,10 63.4965517,8.43478261 L64.1087774,8.43478261 L64.1087774,11.9130435 L63.4965517,11.9130435 C63.4965517,10.6086957 62.6219436,9.39130435 61.0476489,9.39130435 C59.9981191,9.39130435 59.4733542,9.91304348 59.4733542,10.6956522 C59.4733542,11.3913043 59.9981191,11.826087 61.3100313,12.5217391 L62.7968652,13.3043478 C64.1087774,14.0869565 64.8959248,15.1304348 64.8959248,16.173913 C64.7210031,18.2608696 63.0592476,19.5652174 61.1351097,19.5652174 Z" id="Shape"></path>
                    <path d="M72.7673981,12.0869565 C73.1172414,11.1304348 72.5924765,9.65217391 70.5808777,9.65217391 C69.2689655,9.65217391 68.1319749,10.6086957 67.6946708,12.0869565 L72.7673981,12.0869565 Z M71.4554859,18.2608696 C72.4175549,18.2608696 73.9043887,17.6521739 74.7789969,16.8695652 L75.3037618,17.5652174 C74.254232,18.6956522 72.4175549,19.5652174 70.6683386,19.5652174 C67.3448276,19.5652174 65.0708464,17.0434783 65.0708464,14 C65.0708464,10.7826087 67.8695925,8.52173913 70.6683386,8.52173913 C73.3796238,8.52173913 75.5661442,10.6956522 74.7789969,13.3043478 L67.4322884,13.3043478 C67.169906,16.0869565 68.3943574,18.2608696 71.4554859,18.2608696 Z" id="Shape"></path>
                    <path d="M83.9623824,8.43478261 C86.6736677,8.43478261 87.8981191,10.3478261 87.8981191,12.9565217 L87.8981191,14.8695652 C87.8981191,17.9130435 88.2479624,18.4347826 90.2595611,18.4347826 L90.2595611,19.0434783 L83.3501567,19.0434783 L83.3501567,18.4347826 C85.3617555,18.4347826 85.7115987,17.9130435 85.7115987,14.8695652 L85.7115987,13.1304348 C85.7115987,11.1304348 85.0119122,9.91304348 83.1752351,9.91304348 C81.5134796,9.91304348 79.6768025,11.3043478 79.6768025,12.9565217 L79.6768025,14.9565217 C79.6768025,18.0869565 79.939185,18.5217391 81.7758621,18.5217391 L81.7758621,19.1304348 L75.2163009,19.1304348 L75.2163009,18.5217391 C77.2278997,18.5217391 77.5777429,18 77.5777429,14.9565217 L77.5777429,13.4782609 C77.5777429,10.4347826 77.1404389,10 75.2163009,10 L75.2163009,9.39130435 L79.2394984,8.60869565 C79.4144201,8.86956522 79.6768025,10.173913 79.7642633,10.7826087 C80.5514107,9.56521739 81.9507837,8.43478261 83.9623824,8.43478261 Z" id="Shape"></path>
                    <path d="M98.830721,12.0869565 C98.3059561,10.6956522 97.1689655,9.73913043 95.7695925,9.73913043 C93.4081505,9.73913043 92.2711599,11.6521739 92.2711599,14.0869565 C92.2711599,16.5217391 93.3206897,18.4347826 95.7695925,18.4347826 C97.1689655,18.4347826 98.3059561,17.4782609 98.830721,16.0869565 L98.830721,12.0869565 Z M98.830721,5.30434783 C98.830721,2.26086957 98.4808777,1.73913043 96.469279,1.73913043 L96.469279,1.13043478 L101.017241,0.347826087 L101.017241,14.5217391 C101.017241,17.5652174 101.367085,18.0869565 103.378683,18.0869565 L103.378683,18.6956522 L99.3554859,19.4782609 C99.1805643,19.2173913 98.9181818,18.0869565 98.830721,17.6521739 C97.9561129,18.6956522 96.7316614,19.4782609 95.069906,19.4782609 C92.1836991,19.4782609 89.8222571,16.9565217 89.8222571,13.9130435 C89.8222571,10.8695652 92.1836991,8.43478261 95.069906,8.43478261 C96.5567398,8.43478261 97.868652,9.13043478 98.7432602,10.173913 L98.7432602,5.30434783 L98.830721,5.30434783 Z" id="Shape"></path>
                    <path d="M123.319749,4.95652174 L122.707524,4.95652174 L122.532602,4.34782609 C122.095298,2.7826087 121.832915,2.08695652 119.034169,2.08695652 L115.098433,2.08695652 L115.098433,14.8695652 C115.098433,17.9130435 115.535737,18.4347826 117.984639,18.4347826 L117.984639,19.0434783 L109.763323,19.0434783 L109.763323,18.4347826 C112.299687,18.4347826 112.64953,17.9130435 112.64953,14.8695652 L112.64953,2.08695652 L108.713793,2.08695652 C105.915047,2.08695652 105.652665,2.7826087 105.215361,4.34782609 L105.040439,4.95652174 L104.428213,4.95652174 L104.690596,0.869565217 L123.144828,0.869565217 L123.319749,4.95652174 Z" id="Shape"></path>
                    <path d="M128.305016,11.7391304 C127.69279,11.7391304 127.255486,11.2173913 127.255486,10.6956522 C127.255486,10.0869565 126.905643,9.73913043 126.293417,9.73913043 C125.59373,9.73913043 123.931975,10.8695652 123.931975,13.3043478 L123.931975,14.9565217 C123.931975,18 124.281818,18.5217391 126.293417,18.5217391 L126.293417,19.1304348 L119.384013,19.1304348 L119.384013,18.5217391 C121.395611,18.5217391 121.745455,18 121.745455,14.9565217 L121.745455,13.4782609 C121.745455,10.4347826 121.395611,10 119.384013,10 L119.384013,9.39130435 L123.40721,8.60869565 C123.582132,8.86956522 123.844514,10.173913 123.931975,10.7826087 C124.544201,9.56521739 125.943574,8.60869565 127.080564,8.60869565 C128.74232,8.60869565 129.442006,9.73913043 129.442006,10.5217391 C129.529467,10.9565217 129.267085,11.7391304 128.305016,11.7391304 Z" id="Shape"></path>
                    <path d="M136.876176,12.0869565 C137.226019,11.1304348 136.701254,9.65217391 134.689655,9.65217391 C133.377743,9.65217391 132.240752,10.6086957 131.803448,12.0869565 L136.876176,12.0869565 Z M135.651724,18.2608696 C136.613793,18.2608696 138.100627,17.6521739 138.975235,16.8695652 L139.5,17.5652174 C138.45047,18.6956522 136.613793,19.5652174 134.864577,19.5652174 C131.541066,19.5652174 129.267085,17.0434783 129.267085,14 C129.267085,10.7826087 132.065831,8.52173913 134.864577,8.52173913 C137.575862,8.52173913 139.762382,10.6956522 138.975235,13.3043478 L131.628527,13.3043478 C131.278683,16.0869565 132.503135,18.2608696 135.651724,18.2608696 Z" id="Shape"></path>
                    <path d="M146.409404,13.5652174 C143.523197,14.2608696 142.211285,15.2173913 142.211285,16.5217391 C142.211285,17.4782609 142.910972,18.0869565 143.610658,18.0869565 C144.222884,18.0869565 145.010031,17.9130435 146.409404,16.6086957 L146.409404,13.5652174 Z M148.508464,19.3913043 C147.284013,19.3913043 146.584326,18.6956522 146.409404,17.6521739 C144.922571,18.9565217 143.873041,19.4782609 142.648589,19.4782609 C141.161755,19.4782609 139.937304,18.5217391 139.937304,16.9565217 C139.937304,14.4347826 142.910972,13.3043478 146.409404,12.6956522 C146.409404,10.4347826 146.147022,9.56521739 144.397806,9.56521739 C143.698119,9.56521739 142.648589,10.0869565 142.648589,11.0434783 C142.648589,11.6521739 142.211285,12.0869565 141.59906,12.0869565 C140.986834,12.0869565 140.54953,11.6521739 140.54953,11.0434783 C140.54953,9.56521739 142.473668,8.60869565 144.397806,8.60869565 C147.371473,8.60869565 148.595925,9.82608696 148.595925,12.6956522 L148.595925,17.2173913 C148.595925,18 148.858307,18.4347826 149.295611,18.4347826 C149.557994,18.4347826 149.907837,18.173913 150.170219,18 L150.607524,18.6086957 C149.907837,19.0434783 149.20815,19.3913043 148.508464,19.3913043 Z" id="Shape"></path>
                    <path d="M149.383072,10 L149.383072,9.30434783 C151.219749,8.86956522 151.831975,7.65217391 152.094357,5.65217391 L153.143887,5.65217391 L153.143887,8.95652174 L155.767712,8.95652174 L155.767712,10 L153.143887,10 L153.143887,16 C153.143887,17.3913043 153.581191,18.173913 154.54326,18.173913 C155.068025,18.173913 155.855172,17.826087 156.554859,17.1304348 L157.079624,17.6521739 C156.205016,18.6956522 154.893103,19.3913043 153.931034,19.3913043 C152.269279,19.3913043 151.132288,18.3478261 151.132288,16 L151.132288,10 L149.383072,10 Z" id="Shape"></path>
                    <path d="M168.799373,14.8695652 C168.799373,18.0869565 168.974295,18.4347826 170.723511,18.4347826 L170.723511,19.0434783 L164.776176,19.0434783 L164.776176,18.4347826 C166.437931,18.4347826 166.700313,18.0869565 166.700313,14.8695652 L166.700313,13.1304348 C166.700313,11.1304348 166.088088,9.91304348 164.513793,9.91304348 C163.464263,9.91304348 161.365204,11.0434783 161.365204,12.9565217 L161.365204,14.9565217 C161.365204,18.0869565 161.540125,18.5217391 163.201881,18.5217391 L163.201881,19.1304348 L156.729781,19.1304348 L156.729781,18.5217391 C158.741379,18.5217391 159.091223,18 159.091223,14.9565217 L159.091223,13.4782609 C159.091223,10.4347826 158.741379,10 156.729781,10 L156.729781,9.39130435 L160.752978,8.60869565 C160.9279,8.86956522 161.190282,10.173913 161.277743,10.7826087 C162.06489,9.73913043 163.464263,8.60869565 165.21348,8.60869565 C167.050157,8.60869565 168.012226,9.47826087 168.44953,10.8695652 C169.149216,9.91304348 170.898433,8.60869565 172.73511,8.60869565 C175.446395,8.60869565 176.233542,10.5217391 176.233542,13.1304348 L176.233542,15.0434783 C176.233542,18.0869565 176.670846,18.6086957 178.594984,18.6086957 L178.594984,19.2173913 L172.297806,19.2173913 L172.297806,18.6086957 C173.959561,18.6086957 174.221944,18.2608696 174.221944,15.0434783 L174.221944,13.3043478 C174.221944,11.3043478 173.609718,10.0869565 172.035423,10.0869565 C170.985893,10.0869565 168.886834,11.2173913 168.886834,13.1304348 L168.886834,14.8695652 L168.799373,14.8695652 Z" id="Shape"></path>
                    <path d="M185.329467,12.0869565 C185.67931,11.1304348 185.154545,9.65217391 183.142947,9.65217391 C181.831034,9.65217391 180.694044,10.6086957 180.25674,12.0869565 L185.329467,12.0869565 Z M184.105016,18.2608696 C185.067085,18.2608696 186.553918,17.6521739 187.428527,16.8695652 L187.953292,17.5652174 C186.903762,18.6956522 185.067085,19.5652174 183.317868,19.5652174 C179.994357,19.5652174 177.720376,17.0434783 177.720376,14 C177.720376,10.7826087 180.519122,8.52173913 183.317868,8.52173913 C186.029154,8.52173913 188.215674,10.6956522 187.428527,13.3043478 L180.169279,13.3043478 C179.731975,16.0869565 180.956426,18.2608696 184.105016,18.2608696 Z" id="Shape"></path>
                    <path d="M195.912226,8.43478261 C198.623511,8.43478261 199.847962,10.3478261 199.847962,12.9565217 L199.847962,14.8695652 C199.847962,17.9130435 200.197806,18.4347826 202.209404,18.4347826 L202.209404,19.0434783 L195.3,19.0434783 L195.3,18.4347826 C197.311599,18.4347826 197.661442,17.9130435 197.661442,14.8695652 L197.661442,13.1304348 C197.661442,11.1304348 196.961755,9.91304348 195.125078,9.91304348 C193.463323,9.91304348 191.626646,11.3043478 191.626646,12.9565217 L191.626646,14.9565217 C191.626646,18.0869565 191.889028,18.5217391 193.725705,18.5217391 L193.725705,19.1304348 L187.166144,19.1304348 L187.166144,18.5217391 C189.177743,18.5217391 189.527586,18 189.527586,14.9565217 L189.527586,13.4782609 C189.527586,10.4347826 189.090282,10 187.166144,10 L187.166144,9.39130435 L191.189342,8.60869565 C191.364263,8.86956522 191.626646,10.173913 191.714107,10.7826087 C192.501254,9.56521739 193.900627,8.43478261 195.912226,8.43478261 Z" id="Shape"></path>
                    <path d="M200.63511,10 L200.63511,9.30434783 C202.471787,8.86956522 203.084013,7.65217391 203.346395,5.65217391 L204.395925,5.65217391 L204.395925,8.95652174 L207.019749,8.95652174 L207.019749,10 L204.395925,10 L204.395925,16 C204.395925,17.3913043 204.833229,18.173913 205.795298,18.173913 C206.320063,18.173913 207.10721,17.826087 207.806897,17.1304348 L208.331661,17.6521739 C207.457053,18.6956522 206.145141,19.3913043 205.183072,19.3913043 C203.521317,19.3913043 202.384326,18.3478261 202.384326,16 L202.384326,10 L200.63511,10 Z" id="Shape"></path>
                    <path d="M226.698433,18.6956522 C226.523511,18 226.086207,17.2173913 225.648903,16.9565217 C224.074608,18.5217391 222.15047,19.4782609 219.96395,19.4782609 C214.803762,19.4782609 210.693103,15.1304348 210.693103,9.91304348 C210.693103,4.69565217 214.891223,0.347826087 219.96395,0.347826087 C222.063009,0.347826087 224.074608,1.30434783 225.648903,2.86956522 C226.086207,2.60869565 226.523511,1.91304348 226.698433,1.13043478 L227.310658,1.13043478 L227.310658,7.73913043 L226.698433,7.73913043 C225.823824,3.82608696 223.549843,1.47826087 220.138871,1.47826087 C215.241066,1.47826087 213.49185,6.08695652 213.49185,9.82608696 C213.49185,13.5652174 215.241066,18.173913 220.138871,18.173913 C223.549843,18.173913 225.823824,15.7391304 226.698433,11.9130435 L227.310658,11.9130435 L227.310658,18.5217391 L226.698433,18.5217391 L226.698433,18.6956522 Z" id="Shape"></path>
                    <path d="M235.619436,12.0869565 C235.969279,11.1304348 235.444514,9.65217391 233.432915,9.65217391 C232.121003,9.65217391 230.984013,10.6086957 230.546708,12.0869565 L235.619436,12.0869565 Z M234.307524,18.2608696 C235.269592,18.2608696 236.756426,17.6521739 237.631034,16.8695652 L238.155799,17.5652174 C237.10627,18.6956522 235.269592,19.5652174 233.520376,19.5652174 C230.196865,19.5652174 227.922884,17.0434783 227.922884,14 C227.922884,10.7826087 230.72163,8.52173913 233.520376,8.52173913 C236.231661,8.52173913 238.418182,10.6956522 237.631034,13.3043478 L230.284326,13.3043478 C230.021944,16.0869565 231.246395,18.2608696 234.307524,18.2608696 Z" id="Shape"></path>
                    <path d="M246.202194,8.43478261 C248.91348,8.43478261 250.137931,10.3478261 250.137931,12.9565217 L250.137931,14.8695652 C250.137931,17.9130435 250.487774,18.4347826 252.499373,18.4347826 L252.499373,19.0434783 L245.589969,19.0434783 L245.589969,18.4347826 C247.601567,18.4347826 247.951411,17.9130435 247.951411,14.8695652 L247.951411,13.1304348 C247.951411,11.1304348 247.251724,9.91304348 245.415047,9.91304348 C243.753292,9.91304348 241.916614,11.3043478 241.916614,12.9565217 L241.916614,14.9565217 C241.916614,18.0869565 242.178997,18.5217391 244.015674,18.5217391 L244.015674,19.1304348 L237.368652,19.1304348 L237.368652,18.5217391 C239.380251,18.5217391 239.730094,18 239.730094,14.9565217 L239.730094,13.4782609 C239.730094,10.4347826 239.29279,10 237.368652,10 L237.368652,9.39130435 L241.39185,8.60869565 C241.566771,8.86956522 241.829154,10.173913 241.916614,10.7826087 C242.791223,9.56521739 244.190596,8.43478261 246.202194,8.43478261 Z" id="Shape"></path>
                    <path d="M251.537304,10 L251.537304,9.30434783 C253.373981,8.86956522 253.986207,7.65217391 254.248589,5.65217391 L255.298119,5.65217391 L255.298119,8.95652174 L257.921944,8.95652174 L257.921944,10 L255.298119,10 L255.298119,16 C255.298119,17.3913043 255.735423,18.173913 256.697492,18.173913 C257.222257,18.173913 258.009404,17.826087 258.709091,17.1304348 L259.233856,17.6521739 C258.359248,18.6956522 257.047335,19.3913043 256.085266,19.3913043 C254.423511,19.3913043 253.28652,18.3478261 253.28652,16 L253.28652,10 L251.537304,10 Z" id="Shape"></path>
                    <path d="M266.318182,12.0869565 C266.668025,11.1304348 266.14326,9.65217391 264.131661,9.65217391 C262.819749,9.65217391 261.682759,10.6086957 261.245455,12.0869565 L266.318182,12.0869565 Z M265.00627,18.2608696 C265.968339,18.2608696 267.455172,17.6521739 268.329781,16.8695652 L268.854545,17.5652174 C267.805016,18.6956522 265.968339,19.5652174 264.219122,19.5652174 C260.895611,19.5652174 258.62163,17.0434783 258.62163,14 C258.62163,10.7826087 261.420376,8.52173913 264.219122,8.52173913 C266.930408,8.52173913 269.116928,10.6956522 268.329781,13.3043478 L260.983072,13.3043478 C260.72069,16.0869565 261.85768,18.2608696 265.00627,18.2608696 Z" id="Shape"></path>
                    <path d="M277.600627,11.7391304 C276.988401,11.7391304 276.551097,11.2173913 276.551097,10.6956522 C276.551097,10.0869565 276.201254,9.73913043 275.589028,9.73913043 C274.889342,9.73913043 273.227586,10.8695652 273.227586,13.3043478 L273.227586,14.9565217 C273.227586,18 273.577429,18.5217391 275.589028,18.5217391 L275.589028,19.1304348 L268.679624,19.1304348 L268.679624,18.5217391 C270.691223,18.5217391 271.041066,18 271.041066,14.9565217 L271.041066,13.4782609 C271.041066,10.4347826 270.691223,10 268.679624,10 L268.679624,9.39130435 L272.702821,8.60869565 C272.877743,8.86956522 273.140125,10.173913 273.227586,10.7826087 C273.839812,9.56521739 275.239185,8.60869565 276.376176,8.60869565 C278.037931,8.60869565 278.737618,9.73913043 278.737618,10.5217391 C278.825078,10.9565217 278.562696,11.7391304 277.600627,11.7391304 Z" id="Shape"></path>
                </g>
                <path d="M20,0 C8.9380531,0 0,8.71460177 0,19.5 C0,30.2853982 9.02654867,39 20,39 C31.0619469,39 40,30.199115 40,19.5 C40,8.71460177 31.0619469,0 20,0 Z M29.8230088,18.8097345 C29.8230088,18.8097345 28.5840708,18.0331858 27.8761062,17.8606195 C27.1681416,17.6880531 25.2212389,15.9623894 25.2212389,15.9623894 L24.7787611,15.6172566 C26.9911504,18.2920354 26.2831858,20.3628319 26.2831858,20.3628319 C25.4867257,23.3827434 23.0088496,24.590708 21.7699115,25.1084071 L23.539823,31.2345133 C23.2743363,31.3207965 23.0088496,31.3207965 22.7433628,31.4070796 L20.619469,25.3672566 C20.2654867,25.4535398 19.9115044,25.6261062 19.5575221,25.7123894 L19.380531,31.6659292 C19.2920354,31.6659292 19.2035398,31.6659292 19.1150442,31.6659292 C18.9380531,31.6659292 18.6725664,31.6659292 18.4955752,31.579646 L18.3185841,25.9712389 C17.2566372,26.2300885 16.1946903,26.4026549 15.3097345,26.5752212 C19.5575221,22.0884956 21.4159292,22.0884956 21.5044248,22.0884956 C18.7610619,21.7433628 12.920354,26.8340708 12.920354,26.8340708 C11.7699115,27.9557522 9.91150442,27.7831858 9.91150442,27.7831858 C9.73451327,26.5752212 10.7079646,25.0221239 10.7079646,25.0221239 C9.38053097,24.590708 9.20353982,23.9867257 9.20353982,23.9867257 C10.9734513,22.6061947 11.7699115,21.6570796 11.7699115,21.6570796 C17.3451327,15.0132743 21.6814159,17.4292035 21.6814159,17.4292035 C21.6814159,17.4292035 22.920354,17.9469027 23.0973451,16.5663717 C23.2743363,15.0132743 20.9734513,12.9424779 19.7345133,12.2522124 C18.9380531,11.6482301 18.4070796,10.5265487 18.6725664,9.66371681 C18.7610619,9.49115044 18.7610619,9.40486726 18.8495575,9.23230088 L18.2300885,9.57743363 C18.3185841,9.05973451 18.5840708,8.62831858 18.6725664,8.5420354 C18.4955752,8.5420354 18.0530973,8.45575221 18.0530973,8.45575221 C18.2300885,7.76548673 18.9380531,7.85176991 18.9380531,7.85176991 C18.6725664,7.67920354 18.3185841,7.3340708 18.3185841,7.3340708 C22.7433628,6.38495575 23.3628319,9.83628319 23.3628319,9.83628319 C23.3628319,10.0088496 23.4513274,10.0951327 23.4513274,10.0951327 C23.539823,10.4402655 23.4513274,10.7853982 23.6283186,10.9579646 C23.8053097,11.3893805 24.7787611,12.5110619 24.7787611,12.5110619 C27.3451327,15.4446903 30.4424779,18.6371681 30.4424779,18.6371681 C30.2654867,18.9823009 29.8230088,18.8097345 29.8230088,18.8097345 Z" id="Shape"></path>
            </g>
        </g>
    </g>
</svg>