<?xml version="1.0" encoding="UTF-8"?>
<svg width="201px" height="201px" viewBox="0 0 201 201" version="1.1" xmlns="http://www.w3.org/2000/svg" xmlns:xlink="http://www.w3.org/1999/xlink">
    <!-- Generator: Sketch 51.1 (57501) - http://www.bohemiancoding.com/sketch -->
    <title>Group</title>
    <desc>Created with Sketch.</desc>
    <defs></defs>
    <g id="Symbols" stroke="none" stroke-width="1" fill="none" fill-rule="evenodd">
        <g id="flight" transform="translate(2.000000, 2.000000)">
            <g id="Group">
                <g id="Group-Copy-10" stroke="#E4C158" stroke-width="3">
                    <g id="Group-4">
                        <circle id="Oval" cx="98.5" cy="98.5" r="98.5"></circle>
                    </g>
                </g>
                <g id="AirplaneIcons-10" transform="translate(33.000000, 63.000000)" fill="#E4C158" fill-rule="nonzero">
                    <path d="M128.574074,45.8156028 L83.4518519,45.8156028 C83.4518519,45.5744681 83.4518519,45.0921986 83.4518519,44.8510638 C83.4518519,39.787234 82.2388889,35.2056738 80.0555556,31.3475177 L94.6111111,31.3475177 C96.0666667,31.3475177 97.037037,30.3829787 97.037037,28.9361702 C97.037037,27.4893617 96.0666667,26.5248227 94.6111111,26.5248227 L77.6296296,26.5248227 C77.1444444,26.5248227 76.9018519,26.5248227 76.6592593,26.7659574 C74.2333333,24.3546099 71.0796296,22.6666667 67.9259259,21.9432624 C67.9259259,21.9432624 67.9259259,21.7021277 67.9259259,21.7021277 L67.9259259,2.41134752 C67.9259259,0.964539007 66.9555556,0 65.5,0 C64.0444444,0 63.0740741,0.964539007 63.0740741,2.41134752 L63.0740741,21.7021277 C63.0740741,21.7021277 63.0740741,21.9432624 63.0740741,21.9432624 C59.6777778,22.4255319 56.7666667,24.1134752 54.3407407,26.7659574 C54.0981481,26.5248227 53.8555556,26.5248227 53.3703704,26.5248227 L36.3888889,26.5248227 C34.9333333,26.5248227 33.962963,27.4893617 33.962963,28.9361702 C33.962963,30.3829787 34.9333333,31.3475177 36.3888889,31.3475177 L50.9444444,31.3475177 C48.7611111,35.2056738 47.5481481,39.787234 47.5481481,44.8510638 C47.5481481,45.0921986 47.5481481,45.5744681 47.5481481,45.8156028 L2.42592593,45.8156028 C0.97037037,45.8156028 0,46.7801418 0,48.2269504 C0,49.6737589 0.97037037,50.6382979 2.42592593,50.6382979 L12.6148148,50.6382979 C11.887037,51.8439716 11.4018519,53.0496454 11.4018519,54.4964539 C11.4018519,58.5957447 14.7981481,61.9716312 18.9222222,61.9716312 C23.0462963,61.9716312 26.4425926,58.5957447 26.4425926,54.4964539 C26.4425926,53.0496454 25.9574074,51.8439716 25.2296296,50.6382979 L30.0814815,50.6382979 C29.3537037,51.8439716 28.8685185,53.0496454 28.8685185,54.4964539 C28.8685185,58.5957447 32.2648148,61.9716312 36.3888889,61.9716312 C40.512963,61.9716312 43.9092593,58.5957447 43.9092593,54.4964539 C43.9092593,53.0496454 43.4240741,51.8439716 42.6962963,50.6382979 L47.7907407,50.6382979 C49.7314815,60.5248227 56.7666667,68 65.2574074,68 C73.7481481,68 80.5407407,60.5248227 82.7240741,50.6382979 L87.8185185,50.6382979 C87.0907407,51.8439716 86.6055556,53.0496454 86.6055556,54.4964539 C86.6055556,58.5957447 90.0018519,61.9716312 94.1259259,61.9716312 C98.25,61.9716312 101.646296,58.5957447 101.646296,54.4964539 C101.646296,53.0496454 101.161111,51.8439716 100.433333,50.6382979 L105.285185,50.6382979 C104.557407,51.8439716 104.072222,53.0496454 104.072222,54.4964539 C104.072222,58.5957447 107.468519,61.9716312 111.592593,61.9716312 C115.716667,61.9716312 119.112963,58.5957447 119.112963,54.4964539 C119.112963,53.0496454 118.627778,51.8439716 117.9,50.6382979 L128.574074,50.6382979 C130.02963,50.6382979 131,49.6737589 131,48.2269504 C131,46.7801418 130.02963,45.8156028 128.574074,45.8156028 Z M18.9222222,57.3900709 C17.4666667,57.3900709 16.2537037,56.1843972 16.2537037,54.7375887 C16.2537037,53.2907801 17.4666667,52.0851064 18.9222222,52.0851064 C20.3777778,52.0851064 21.5907407,53.2907801 21.5907407,54.7375887 C21.5907407,56.1843972 20.3777778,57.3900709 18.9222222,57.3900709 Z M36.6314815,57.3900709 C35.1759259,57.3900709 33.962963,56.1843972 33.962963,54.7375887 C33.962963,53.2907801 35.1759259,52.0851064 36.6314815,52.0851064 C38.087037,52.0851064 39.3,53.2907801 39.3,54.7375887 C39.3,56.1843972 38.087037,57.3900709 36.6314815,57.3900709 Z M65.5,63.177305 C58.2222222,63.177305 52.4,54.9787234 52.4,44.8510638 C52.4,34.7234043 58.2222222,26.5248227 65.5,26.5248227 C72.7777778,26.5248227 78.6,34.7234043 78.6,44.8510638 C78.6,54.9787234 72.7777778,63.177305 65.5,63.177305 Z M94.3685185,57.3900709 C92.912963,57.3900709 91.7,56.1843972 91.7,54.7375887 C91.7,53.2907801 92.912963,52.0851064 94.3685185,52.0851064 C95.8240741,52.0851064 97.037037,53.2907801 97.037037,54.7375887 C97.037037,56.1843972 95.8240741,57.3900709 94.3685185,57.3900709 Z M112.077778,57.3900709 C110.622222,57.3900709 109.409259,56.1843972 109.409259,54.7375887 C109.409259,53.2907801 110.622222,52.0851064 112.077778,52.0851064 C113.290741,52.0851064 114.746296,53.2907801 114.746296,54.7375887 C114.746296,56.1843972 113.533333,57.3900709 112.077778,57.3900709 Z" id="Shape"></path>
                    <path d="M70.5,36 L60.5,36 C59,36 58,37 58,38.5 C58,40 59,41 60.5,41 L70.5,41 C72,41 73,40 73,38.5 C73,37 72,36 70.5,36 Z" id="Shape"></path>
                </g>
            </g>
        </g>
    </g>
</svg>