<svg height="79" viewBox="0 0 102 79" width="102" 
  xmlns="http://www.w3.org/2000/svg">
  <g style="stroke:#523628;fill:none;fill-rule:evenodd;stroke-linecap:round;stroke-linejoin:round;stroke-width:3" transform="translate(2 1)">
    <path d="m75.4583333 47.2694444 4.5833334 4.7055556c1.875 1.925 1.875 4.9194444 0 6.6305556-1.875 1.925-4.7916667 1.925-6.4583334 0l-3.125-3.2083334"/>
    <path d="m69 53.9 7.2916667 7.4861111c1.875 1.925 1.875 4.9194445 0 6.6305556-1.875 1.925-4.7916667 1.925-6.4583334 0l-7.2916666-7.4861111"/>
    <path d="m60.6666667 58.6055556 7.7083333 7.9138888c1.875 1.925 1.875 4.9194445 0 6.6305556-1.875 1.925-4.7916667 1.925-6.4583333 0l-7.7083334-7.9138889"/>
    <path d="m52.3333333 63.525 4.375 4.4916667c1.875 1.925 1.6666667 4.9194444-.2083333 6.8444444s-5 1.925-6.6666667.2138889l-3.3333333-3.4222222"/>
    <path d="m52.75 23.9555556 22.7083333 23.3138888"/>
    <path d="m19.8333333 44.275-19.37499997-19.8916667 20.41666667-20.74722219 9.375 9.62499999s9.5833333-2.5666667 19.1666667.2138889"/>
    <path d="m48.375 62.8833333.2083333.2138889c1.6666667 1.7111111 1.6666667 4.7055556 0 6.4166667l-4.1666666 4.2777778c-1.6666667 1.7111111-4.5833334 1.7111111-6.25 0l-.2083334-.2138889c-1.6666666-1.7111111-1.6666666-4.7055556 0-6.4166667l4.1666667-4.2777778c1.6666667-1.7111111 4.375-1.7111111 6.25 0z"/>
    <path d="m42.5416667 54.3277778.2083333.2138889c1.6666667 1.7111111 1.6666667 4.7055555 0 6.4166666l-5.8333333 5.9888889c-1.6666667 1.7111111-4.5833334 1.7111111-6.25 0l-.2083334-.2138889c-1.6666666-1.7111111-1.6666666-4.7055555 0-6.4166666l5.8333334-5.9888889c1.6666666-1.7111111 4.375-1.7111111 6.25 0z"/>
    <path d="m29.4166667 41.0666667.2083333.2138889c1.6666667 1.7111111 1.6666667 4.7055555 0 6.4166666l-5.8333333 5.9888889c-1.6666667 1.7111111-4.5833334 1.7111111-6.25 0l-.2083334-.2138889c-1.6666666-1.7111111-1.6666666-4.7055555 0-6.4166666l5.8333334-5.9888889c1.6666666-1.925 4.5833333-1.925 6.25 0z"/>
    <path d="m37.125 46.4138889.2083333.2138889c1.6666667 1.7111111 1.6666667 4.7055555 0 6.4166666l-8.125 8.3416667c-1.6666666 1.7111111-4.5833333 1.7111111-6.25 0l-.2083333-.2138889c-1.6666667-1.7111111-1.6666667-4.7055555 0-6.4166666l8.125-8.3416667c1.6666667-1.7111111 4.5833333-1.7111111 6.25 0z"/>
    <path d="m74.2083333 44.275 23.3333334-23.9555556-19.1666667-19.67777773-16.6666667 17.53888893s-11.0416666-7.9138889-17.2916666-2.7805556c-2.9166667 2.3527778-6.0416667 4.2777778-8.3333334 5.775-2.2916666 1.4972222-3.125 4.2777778-2.0833333 6.8444444 1.25 2.7805556 4.5833333 4.0638889 7.2916667 2.5666667l10.8333333-5.775"/>
  </g>
</svg>