<svg width="82px" height="84px" viewBox="0 0 82 84" version="1.1" 
  xmlns="http://www.w3.org/2000/svg" 
  xmlns:xlink="http://www.w3.org/1999/xlink">
  <g id="Page-1" stroke="none" stroke-width="1" fill="none" fill-rule="evenodd">
    <g id="Desktop-HD-Copy-2" transform="translate(-693.000000, -1169.000000)" fill="#344663">
      <g id="Hospital" transform="translate(693.000000, 1169.000000)">
        <g id="112">
          <path d="M79.3527559,81.288189 L79.3527559,36.576378 L62.161811,36.576378 L62.161811,21.6779528 L52.8964567,21.6779528 L52.8964567,0 L29.1035433,0 L29.1035433,21.6779528 L19.838189,21.6779528 L19.838189,36.576378 L2.64724409,36.576378 L2.64724409,81.288189 L0,81.288189 L0,84 L82,84 L82,81.288189 L79.3527559,81.288189 Z M31.7346457,2.71181102 L50.2492126,2.71181102 L50.2492126,21.6779528 L31.7346457,21.6779528 L31.7346457,2.71181102 Z M5.29448819,81.288189 L5.29448819,39.288189 L19.838189,39.288189 L19.838189,81.288189 L5.29448819,81.288189 Z M34.3818898,81.288189 L34.3818898,62.3220472 L47.6181102,62.3220472 L47.6181102,81.288189 L34.3818898,81.288189 Z M50.2653543,81.288189 L50.2653543,59.6102362 L31.7346457,59.6102362 L31.7346457,81.288189 L22.4692913,81.288189 L22.4692913,24.3897638 L59.4984252,24.3897638 L59.4984252,81.288189 L50.2653543,81.288189 Z M76.7055118,81.288189 L62.161811,81.288189 L62.161811,39.288189 L76.7055118,39.288189 L76.7055118,81.288189 Z" id="Shape" fill-rule="nonzero"></path>
          <rect id="Rectangle-path" fill-rule="nonzero" x="9.26535433" y="44.711811" width="6.61811024" height="2.71181102"></rect>
          <rect id="Rectangle-path" fill-rule="nonzero" x="9.26535433" y="54.1866142" width="6.61811024" height="2.71181102"></rect>
          <rect id="Rectangle-path" fill-rule="nonzero" x="9.26535433" y="63.6779528" width="6.61811024" height="2.71181102"></rect>
          <rect id="Rectangle-path" fill-rule="nonzero" x="9.26535433" y="73.1692913" width="6.61811024" height="2.71181102"></rect>
          <rect id="Rectangle-path" fill-rule="nonzero" x="66.1326772" y="44.711811" width="6.61811024" height="2.71181102"></rect>
          <rect id="Rectangle-path" fill-rule="nonzero" x="66.1326772" y="54.1866142" width="6.61811024" height="2.71181102"></rect>
          <rect id="Rectangle-path" fill-rule="nonzero" x="66.1326772" y="63.6779528" width="6.61811024" height="2.71181102"></rect>
          <rect id="Rectangle-path" fill-rule="nonzero" x="66.1326772" y="73.1692913" width="6.61811024" height="2.71181102"></rect>
          <polygon id="Shape" fill-rule="nonzero" points="42.323622 5.42362205 39.676378 5.42362205 39.676378 10.8472441 34.3818898 10.8472441 34.3818898 13.5425197 39.676378 13.5425197 39.676378 18.9661417 42.323622 18.9661417 42.323622 13.5425197 47.6181102 13.5425197 47.6181102 10.8472441 42.323622 10.8472441"></polygon>
          <path d="M27.7799213,39.288189 L38.3527559,39.288189 L38.3527559,28.4574803 L27.7799213,28.4574803 L27.7799213,39.288189 Z M30.4271654,31.1692913 L35.7216535,31.1692913 L35.7216535,36.5929134 L30.4271654,36.5929134 L30.4271654,31.1692913 Z" id="Shape" fill-rule="nonzero"></path>
          <path d="M43.6472441,39.288189 L54.2200787,39.288189 L54.2200787,28.4574803 L43.6472441,28.4574803 L43.6472441,39.288189 Z M46.2944882,31.1692913 L51.5889764,31.1692913 L51.5889764,36.5929134 L46.2944882,36.5929134 L46.2944882,31.1692913 Z" id="Shape" fill-rule="nonzero"></path>
          <path d="M27.7799213,54.1866142 L38.3527559,54.1866142 L38.3527559,43.3559055 L27.7799213,43.3559055 L27.7799213,54.1866142 Z M30.4271654,46.0677165 L35.7216535,46.0677165 L35.7216535,51.4913386 L30.4271654,51.4913386 L30.4271654,46.0677165 Z" id="Shape" fill-rule="nonzero"></path>
          <path d="M43.6472441,54.1866142 L54.2200787,54.1866142 L54.2200787,43.3559055 L43.6472441,43.3559055 L43.6472441,54.1866142 Z M46.2944882,46.0677165 L51.5889764,46.0677165 L51.5889764,51.4913386 L46.2944882,51.4913386 L46.2944882,46.0677165 Z" id="Shape" fill-rule="nonzero"></path>
        </g>
      </g>
    </g>
  </g>
</svg>