<svg height="50" viewBox="0 0 58 58" width="50" 
  xmlns="http://www.w3.org/2000/svg" 
  xmlns:xlink="http://www.w3.org/1999/xlink">
  <filter id="a" height="128%" width="128%" x="-14%">
    <feOffset dx="0" dy="2" in="SourceAlpha" result="shadowOffsetOuter1"/>
    <feGaussianBlur in="shadowOffsetOuter1" result="shadowBlurOuter1" stdDeviation="2"/>
    <feColorMatrix in="shadowBlurOuter1" result="shadowMatrixOuter1" type="matrix" values="0 0 0 0 0   0 0 0 0 0   0 0 0 0 0  0 0 0 0.5 0"/>
    <feMerge>
      <feMergeNode in="shadowMatrixOuter1"/>
      <feMergeNode in="SourceGraphic"/>
    </feMerge>
  </filter>
  <g fill="none" fill-rule="evenodd" filter="url(#a)" transform="translate(4 2)">
    <circle cx="25" cy="25" fill="#d28430" r="25"/>
    <g transform="matrix(.89100652 -.4539905 .4539905 .89100652 11.163118 14.522335)">
      <path d="m5.89493324.6931317c.55923713-.33270322 1.17657683-.59609326 1.83749344-.6931317.02178846 2.74480151 0 5.49653434.01452564 8.24133585.02178846.42281034.02178846.84562067.00726282 1.26843101-.44303201-.00693132-.88606403.19407687-1.14026273.54064274-.41398074.5337114-.55197431 1.1991178-.66817943 1.836799-.24693588 1.5456836-.30503844 3.10523-.2905128 4.6647763.02178846 1.6288595.16704486 3.2577189.42850638 4.8727158.12346793.6238185.23241023 1.2822936.63186533 1.8090737.23241024.3257719.63912816.4921235 1.04584607.4921235.00726282 3.0913674 0 6.1827347 0 9.2741021-.67544225-.0346566-1.32183323-.3049779-1.88833318-.6376812-1.46708963-.8733459-2.55651262-2.2249527-3.36268564-3.6666666-1.40172425-2.5229994-2.02632676-5.3509767-2.31683956-8.1650914-.15978204-1.5387524-.21062178-3.084436-.18883332-4.6301197.06536538-3.1537492.41398074-6.34908634 1.51066655-9.34341527.47934612-1.29615626 1.11121145-2.55072463 1.96822421-3.66666666.65365379-.8594833 1.4598268-1.62885949 2.41125622-2.19722747z"/>
      <path d="m5.89493324.6931317c.55923713-.33270322 1.17657683-.59609326 1.83749344-.6931317.02178846 2.74480151 0 5.49653434.01452564 8.24133585.02178846.42281034.02178846.84562067.00726282 1.26843101-.44303201-.00693132-.88606403.19407687-1.14026273.54064274-.41398074.5337114-.55197431 1.1991178-.66817943 1.836799-.24693588 1.5456836-.30503844 3.10523-.2905128 4.6647763.02178846 1.6288595.16704486 3.2577189.42850638 4.8727158.12346793.6238185.23241023 1.2822936.63186533 1.8090737.23241024.3257719.63912816.4921235 1.04584607.4921235.00726282 3.0913674 0 6.1827347 0 9.2741021-.67544225-.0346566-1.32183323-.3049779-1.88833318-.6376812-1.46708963-.8733459-2.55651262-2.2249527-3.36268564-3.6666666-1.40172425-2.5229994-2.02632676-5.3509767-2.31683956-8.1650914-.15978204-1.5387524-.21062178-3.084436-.18883332-4.6301197.06536538-3.1537492.41398074-6.34908634 1.51066655-9.34341527.47934612-1.29615626 1.11121145-2.55072463 1.96822421-3.66666666.65365379-.8594833 1.4598268-1.62885949 2.41125622-2.19722747z" fill="#fff" fill-rule="nonzero"/>
      <path d="m8.11764706.00308927c.95048189 0 1.90096374-.00695086 2.85144564 0 .475241.00695087.8846793.36144494.9943503.79239852.0073114.29888716.0292456.90361234.036557 1.2024995v5.7622664c-.0658026.38229753.0658026.79934939-.1169824 1.16079432-.1608508.36144494-.5556663.60472519-.9724161.60472519-.92854766 0-1.85709535 0-2.78564304 0-.0073114-3.17654493-.0073114-6.346139-.0073114-9.52268393z"/>
      <path d="m8.11764706.00308927c.95048189 0 1.90096374-.00695086 2.85144564 0 .475241.00695087.8846793.36144494.9943503.79239852.0073114.29888716.0292456.90361234.036557 1.2024995v5.7622664c-.0658026.38229753.0658026.79934939-.1169824 1.16079432-.1608508.36144494-.5556663.60472519-.9724161.60472519-.92854766 0-1.85709535 0-2.78564304 0-.0073114-3.17654493-.0073114-6.346139-.0073114-9.52268393z" fill="#fff" fill-rule="nonzero"/>
      <path d="m8.11764706 23.814433h2.84413424c.475241.0068526.8919907.3563366 1.0016617.7811996.0073114.294663.0219342.8771363.036557 1.1649467v5.488955c-.0584912.4111576.0804254.883989-.1754736 1.2608835-.1974078.3220735-.5995347.4933892-.9870389.4865366-.90661346.0068526-1.80591555 0-2.71252904 0-.0073114-3.0631247-.0073114-6.1193967-.0073114-9.1825214z"/>
      <path d="m8.11764706 23.814433h2.84413424c.475241.0068526.8919907.3563366 1.0016617.7811996.0073114.294663.0219342.8771363.036557 1.1649467v5.488955c-.0584912.4111576.0804254.883989-.1754736 1.2608835-.1974078.3220735-.5995347.4933892-.9870389.4865366-.90661346.0068526-1.80591555 0-2.71252904 0-.0073114-3.0631247-.0073114-6.1193967-.0073114-9.1825214z" fill="#fff" fill-rule="nonzero"/>
    </g>
  </g>
</svg>