<?xml version="1.0" standalone="no"?>
<!DOCTYPE svg PUBLIC "-//W3C//DTD SVG 20010904//EN"
 "http://www.w3.org/TR/2001/REC-SVG-20010904/DTD/svg10.dtd">
<svg version="1.0" xmlns="http://www.w3.org/2000/svg"
 width="700.000000pt" height="700.000000pt" viewBox="0 0 700.000000 700.000000"
 preserveAspectRatio="xMidYMid meet">
<metadata>
Created by potrace 1.11, written by Peter Selinger 2001-2013
</metadata>
<g transform="translate(0.000000,700.000000) scale(0.100000,-0.100000)"
fill="#000000" stroke="none">
<path d="M3270 6554 c-19 -2 -78 -9 -130 -15 -1305 -146 -2392 -1146 -2648
-2435 -48 -237 -57 -338 -57 -604 0 -266 9 -367 57 -604 172 -868 724 -1624
1508 -2066 346 -194 706 -312 1140 -372 127 -17 603 -17 730 0 722 100 1313
386 1805 877 706 702 1021 1673 864 2655 -133 830 -617 1581 -1322 2053 -395
263 -816 422 -1307 493 -100 14 -560 27 -640 18z m304 -949 c56 -27 78 -68 72
-131 l-6 -51 68 -12 c221 -40 547 -210 732 -380 l65 -60 -122 -1 -123 0 0 -27
c0 -16 14 -197 30 -403 16 -206 30 -392 30 -412 l0 -38 -94 0 -94 0 -6 63 c-3
34 -15 186 -26 337 -11 151 -22 299 -26 328 l-5 52 -240 0 -239 0 0 -390 0
-390 -95 0 -95 0 0 390 0 390 -234 0 -235 0 -5 -52 c-4 -29 -15 -177 -26 -328
-11 -151 -23 -303 -26 -337 l-6 -63 -94 0 -94 0 0 38 c0 20 14 206 30 412 16
206 30 387 30 403 l0 27 -122 0 -122 0 30 31 c165 173 482 348 739 409 52 12
69 20 65 31 -2 8 -5 35 -5 61 0 52 26 90 80 114 39 18 119 13 169 -11z m1134
-1982 l-3 -158 -1202 -3 -1203 -2 0 160 0 160 1205 0 1206 0 -3 -157z m-233
-395 c2 -13 30 -167 60 -343 31 -176 58 -328 61 -337 5 -17 -18 -18 -389 -18
l-395 0 -7 53 c-13 97 -55 165 -132 216 -174 115 -410 7 -446 -205 l-11 -64
-404 0 c-379 0 -403 1 -398 18 3 9 30 161 61 337 30 176 58 330 60 343 l5 22
965 0 965 0 5 -22z m-1255 -1057 c0 -71 3 -136 6 -145 5 -14 40 -16 289 -16
249 0 284 2 289 16 3 9 6 72 6 140 l0 124 415 0 c228 0 415 -2 415 -5 0 -2 27
-157 60 -345 33 -188 60 -348 60 -355 0 -13 -166 -15 -1260 -15 -1145 0 -1260
1 -1260 16 0 9 27 170 60 359 33 189 60 346 60 349 0 3 194 6 430 6 l430 0 0
-129z m1588 -848 c-3 -18 -170 -107 -313 -167 -581 -244 -1245 -266 -1834 -61
-200 70 -471 202 -471 231 0 12 173 14 1311 14 1214 0 1310 -1 1307 -17z"/>
</g>
</svg>
