<?xml version="1.0" standalone="no"?>
<!DOCTYPE svg PUBLIC "-//W3C//DTD SVG 20010904//EN"
 "http://www.w3.org/TR/2001/REC-SVG-20010904/DTD/svg10.dtd">
<svg version="1.0" xmlns="http://www.w3.org/2000/svg"
 width="700.000000pt" height="700.000000pt" viewBox="0 0 700.000000 700.000000"
 preserveAspectRatio="xMidYMid meet">
<metadata>
Created by potrace 1.11, written by Peter Selinger 2001-2013
</metadata>
<g transform="translate(0.000000,700.000000) scale(0.100000,-0.100000)"
fill="#000000" stroke="none">
<path d="M3324 6789 c-678 -36 -1302 -270 -1854 -695 -148 -114 -450 -416
-564 -564 -429 -557 -661 -1178 -694 -1863 -40 -804 196 -1551 694 -2197 114
-148 416 -450 564 -564 557 -429 1178 -661 1863 -694 804 -40 1551 196 2197
694 148 114 450 416 564 564 429 557 661 1178 694 1863 40 804 -196 1551 -694
2197 -114 148 -416 450 -564 564 -476 367 -999 589 -1580 670 -94 13 -159 18
-405 30 -38 2 -138 0 -221 -5z m579 -233 c575 -82 1076 -296 1527 -655 122
-97 374 -349 471 -471 367 -461 585 -980 661 -1570 17 -139 17 -581 0 -720
-76 -590 -294 -1109 -661 -1570 -97 -122 -349 -374 -471 -471 -461 -367 -980
-585 -1570 -661 -139 -17 -581 -17 -720 0 -590 76 -1109 294 -1570 661 -122
97 -374 349 -471 471 -367 461 -585 980 -661 1570 -17 139 -17 581 0 720 76
590 294 1109 661 1570 97 122 349 374 471 471 462 367 1019 600 1570 658 58 6
119 13 135 15 69 10 526 -4 628 -18z"/>
<path d="M3284 6250 c-543 -49 -1035 -239 -1467 -567 -131 -100 -400 -369
-500 -500 -296 -389 -474 -813 -548 -1303 -29 -191 -32 -550 -6 -740 69 -497
265 -957 577 -1350 98 -124 320 -348 440 -444 819 -653 1923 -789 2875 -354
454 208 858 554 1142 978 371 553 526 1225 438 1895 -63 483 -264 953 -575
1345 -98 124 -320 348 -440 444 -393 313 -868 517 -1355 581 -142 19 -453 27
-581 15z m556 -969 c231 -40 376 -114 433 -220 l27 -50 -346 -1548 c-387
-1730 -349 -1593 -446 -1600 -43 -3 -60 0 -93 21 l-40 24 -347 1549 -347 1548
16 38 c50 116 220 204 464 241 148 22 182 24 384 20 121 -2 217 -9 295 -23z
m896 -330 c96 -37 169 -88 251 -174 107 -114 182 -261 219 -429 l16 -74 -89
-129 c-306 -445 -606 -971 -967 -1692 -80 -160 -160 -308 -178 -329 -18 -21
-67 -59 -108 -85 -41 -26 -83 -55 -94 -64 -16 -16 -20 -16 -34 -2 -14 15 23
155 397 1504 276 999 417 1492 428 1501 21 16 66 8 159 -27z m-2323 17 c20
-16 840 -2968 831 -2992 -8 -21 -16 -20 -67 5 -58 30 -137 90 -175 133 -18 21
-100 171 -182 335 -351 704 -717 1345 -969 1701 -37 52 -71 101 -75 108 -17
28 39 212 97 327 100 193 262 331 447 379 69 18 73 19 93 4z m2971 -907 c26
-29 102 -209 134 -318 64 -215 67 -365 12 -538 -56 -174 -118 -282 -211 -371
-99 -93 -191 -143 -456 -247 -245 -96 -437 -201 -546 -298 -49 -43 -80 -48
-85 -14 -5 36 273 544 490 895 266 430 596 908 629 909 9 1 24 -7 33 -18z
m-3613 -133 c132 -186 422 -625 533 -805 224 -367 469 -814 464 -848 -5 -36
-43 -29 -102 19 -122 99 -283 185 -534 285 -426 170 -550 284 -658 606 -63
190 -57 366 22 603 36 107 94 233 122 265 31 35 49 21 153 -125z m865 -1748
c32 -17 105 -68 163 -114 179 -140 290 -208 368 -224 40 -8 57 -37 31 -53 -78
-50 -317 -109 -444 -109 -81 0 -146 24 -168 62 -46 80 -86 169 -100 225 -18
69 -21 195 -6 224 17 30 86 25 156 -11z m1884 11 c5 -11 10 -54 10 -96 0 -91
-31 -194 -94 -310 -56 -103 -71 -109 -251 -102 -73 3 -159 13 -195 23 -85 22
-189 69 -196 89 -8 20 13 45 37 45 39 0 194 92 340 203 85 64 179 127 209 141
67 32 125 34 140 7z"/>
</g>
</svg>
