<?xml version="1.0" standalone="no"?>
<!DOCTYPE svg PUBLIC "-//W3C//DTD SVG 20010904//EN"
 "http://www.w3.org/TR/2001/REC-SVG-20010904/DTD/svg10.dtd">
<svg version="1.0" xmlns="http://www.w3.org/2000/svg"
 width="260.000000pt" height="260.000000pt" viewBox="0 0 260.000000 260.000000"
 preserveAspectRatio="xMidYMid meet">
<metadata>
Created by potrace 1.11, written by Peter Selinger 2001-2013
</metadata>
<g transform="translate(0.000000,260.000000) scale(0.100000,-0.100000)"
fill="#000000" stroke="none">
<path d="M1100 2585 c-269 -43 -503 -160 -702 -353 -308 -298 -445 -704 -382
-1131 81 -554 528 -1002 1086 -1087 125 -19 354 -14 468 11 507 111 898 505
1007 1015 25 117 25 401 1 516 -101 465 -426 831 -871 979 -184 61 -415 80
-607 50z m429 -91 c239 -49 438 -152 610 -318 187 -180 302 -388 357 -646 24
-115 25 -343 1 -457 -95 -448 -405 -798 -827 -931 -143 -46 -211 -56 -370 -56
-342 0 -638 127 -876 376 -298 312 -409 736 -298 1149 56 211 159 387 318 545
249 247 563 372 900 358 60 -2 144 -12 185 -20z"/>
<path d="M1130 2375 c-783 -129 -1173 -1015 -738 -1675 167 -253 434 -427 733
-475 485 -79 956 172 1166 621 110 232 128 541 48 784 -98 299 -330 555 -607
670 -184 77 -417 106 -602 75z m410 -386 c0 -16 5 -50 11 -73 10 -42 12 -43
49 -42 21 0 42 -2 45 -6 3 -3 -3 -23 -14 -44 -12 -21 -21 -46 -21 -54 0 -21
93 -174 165 -272 33 -45 97 -119 141 -165 l82 -83 -28 -43 c-47 -74 -109 -100
-173 -73 -42 17 -44 15 -21 -19 16 -24 15 -25 -12 -36 -16 -6 -50 -11 -76 -11
-40 0 -60 8 -128 51 -45 29 -137 79 -205 112 -76 37 -134 72 -150 90 -32 39
-32 22 0 -41 29 -57 59 -82 172 -140 150 -77 261 -201 315 -352 31 -89 33 -86
-71 -138 -136 -68 -331 -90 -480 -54 l-67 16 4 129 c3 76 -3 206 -13 320 -23
254 -17 427 17 521 41 110 99 170 207 214 64 27 42 31 -44 9 -125 -33 -209
-102 -265 -219 -53 -113 -63 -188 -69 -548 -3 -179 -8 -329 -11 -332 -3 -2
-24 11 -48 30 -38 32 -42 40 -42 80 l0 44 -40 0 -40 0 0 80 0 80 40 0 40 0 0
48 0 49 -42 -1 -43 -1 -3 50 c-2 27 -1 65 3 82 5 31 9 33 45 33 27 0 40 4 40
14 0 7 3 28 6 45 6 28 4 31 -17 31 -43 0 -67 11 -63 28 1 10 8 48 15 85 9 55
14 67 28 63 65 -19 68 -19 80 15 16 47 14 54 -24 72 -40 19 -39 24 11 103 42
67 51 72 82 41 l25 -25 38 30 39 31 -26 35 c-22 28 -24 36 -13 44 26 17 134
68 146 68 7 0 17 -17 23 -38 l10 -39 62 13 c35 8 75 14 89 14 15 0 37 12 55
31 30 33 116 79 147 79 12 0 17 -8 17 -31z"/>
<path d="M1453 1599 c7 -51 22 -68 68 -75 51 -7 65 6 45 45 -18 34 -47 55 -90
65 l-29 7 6 -42z"/>
</g>
</svg>
