<?xml version="1.0" standalone="no"?>
<!DOCTYPE svg PUBLIC "-//W3C//DTD SVG 20010904//EN"
 "http://www.w3.org/TR/2001/REC-SVG-20010904/DTD/svg10.dtd">
<svg version="1.0" xmlns="http://www.w3.org/2000/svg"
 width="700.000000pt" height="700.000000pt" viewBox="0 0 700.000000 700.000000"
 preserveAspectRatio="xMidYMid meet">
<metadata>
Created by potrace 1.11, written by Peter Selinger 2001-2013
</metadata>
<g transform="translate(0.000000,700.000000) scale(0.100000,-0.100000)"
fill="#000000" stroke="none">
<path d="M3290 6994 c-19 -2 -87 -9 -150 -15 -330 -31 -706 -128 -1024 -264
-1153 -493 -1956 -1567 -2101 -2810 -21 -179 -20 -633 1 -815 132 -1135 824
-2141 1846 -2680 400 -212 812 -337 1283 -392 145 -17 568 -17 720 0 650 72
1231 298 1740 677 662 491 1131 1203 1320 2000 65 276 68 307 73 758 3 387 2
429 -18 560 -55 370 -154 684 -320 1022 -341 691 -882 1238 -1569 1584 -382
193 -744 302 -1181 357 -110 14 -547 27 -620 18z m1985 -2154 c140 -11 265
-30 265 -39 0 -4 -19 -16 -43 -28 -66 -32 -151 -116 -215 -212 -100 -149 -194
-356 -405 -896 -101 -257 -170 -408 -238 -520 -184 -303 -432 -493 -777 -596
-83 -24 -83 -26 6 -86 111 -73 327 -142 570 -180 117 -19 553 -25 712 -10 l85
8 -84 -55 c-97 -63 -277 -158 -401 -211 -599 -258 -1270 -338 -1756 -209 -161
43 -308 109 -429 193 -308 214 -474 458 -710 1041 -175 431 -248 546 -394 620
-67 33 -130 50 -194 50 -56 0 -58 1 -52 23 23 73 141 225 227 289 92 70 149
91 264 96 215 9 371 -67 654 -317 123 -109 220 -171 267 -171 57 0 114 42 241
179 509 549 754 714 1310 885 411 127 761 173 1097 146z"/>
</g>
</svg>
