<?xml version="1.0" standalone="no"?>
<!DOCTYPE svg PUBLIC "-//W3C//DTD SVG 20010904//EN"
 "http://www.w3.org/TR/2001/REC-SVG-20010904/DTD/svg10.dtd">
<svg version="1.0" xmlns="http://www.w3.org/2000/svg"
 width="700.000000pt" height="700.000000pt" viewBox="0 0 700.000000 700.000000"
 preserveAspectRatio="xMidYMid meet">
<metadata>
Created by potrace 1.11, written by Peter Selinger 2001-2013
</metadata>
<g transform="translate(0.000000,700.000000) scale(0.100000,-0.100000)"
fill="#000000" stroke="none">
<path d="M3170 6945 c-69 -7 -143 -15 -165 -19 -104 -16 -121 -19 -140 -23
-11 -2 -31 -6 -45 -8 -129 -20 -438 -112 -608 -181 -591 -240 -1080 -609
-1476 -1114 -213 -272 -404 -627 -528 -980 -30 -87 -75 -235 -84 -280 -3 -14
-11 -50 -19 -80 -14 -54 -49 -253 -60 -340 -28 -226 -28 -624 1 -845 133
-1031 716 -1942 1599 -2501 219 -139 493 -269 740 -352 123 -41 251 -78 295
-85 14 -3 43 -10 65 -15 22 -6 56 -14 75 -17 98 -18 149 -26 185 -31 22 -3 54
-7 70 -10 172 -26 678 -26 835 0 14 3 48 7 75 11 120 14 335 60 460 96 500
148 905 366 1316 709 76 64 283 270 366 365 297 342 522 740 680 1204 8 24 16
51 18 60 2 9 15 57 29 106 14 50 27 101 30 115 2 14 9 45 14 70 6 25 13 63 17
85 46 298 49 336 50 605 0 185 -5 291 -19 400 -2 14 -6 50 -10 80 -21 162 -77
401 -137 587 -366 1128 -1301 2005 -2444 2295 -66 16 -127 31 -135 33 -83 16
-200 36 -265 44 -44 6 -100 13 -125 16 -93 13 -537 12 -660 0z m610 -219 c254
-31 404 -57 550 -97 90 -25 257 -76 285 -88 11 -5 38 -16 60 -24 146 -54 411
-188 561 -284 288 -182 555 -417 761 -668 41 -49 81 -99 90 -109 81 -99 265
-399 331 -541 19 -38 39 -81 47 -95 22 -41 111 -279 135 -360 12 -41 28 -95
35 -120 26 -87 69 -302 81 -406 3 -23 7 -53 9 -65 22 -114 23 -663 1 -731 -3
-7 -7 -38 -11 -68 -41 -383 -204 -850 -430 -1229 -241 -404 -592 -769 -995
-1036 -606 -402 -1306 -583 -2055 -532 -335 23 -746 127 -1070 273 -287 129
-567 308 -800 509 -143 124 -330 319 -425 445 -19 25 -41 51 -48 59 -22 23
-196 291 -238 366 -88 159 -208 429 -242 545 -6 19 -20 67 -32 105 -12 39 -23
77 -25 85 -2 8 -12 53 -24 100 -41 169 -64 321 -77 520 -12 166 -5 535 10 582
3 7 7 38 11 68 22 212 98 508 191 743 209 531 550 995 986 1342 160 128 132
107 253 186 272 179 573 317 900 412 66 19 134 37 150 40 17 3 77 15 135 26
58 12 123 23 145 26 22 3 56 7 75 10 19 2 76 7 125 11 50 3 91 7 93 8 5 6 400
-2 452 -8z"/>
<path d="M3275 6389 c-129 -12 -197 -20 -260 -33 -11 -2 -40 -7 -65 -11 -225
-35 -568 -155 -808 -282 -145 -76 -376 -222 -402 -253 -3 -3 -32 -27 -66 -52
-184 -141 -415 -386 -566 -603 -295 -423 -471 -915 -513 -1430 -7 -80 -7 -384
-1 -440 2 -16 6 -61 10 -100 14 -136 60 -372 96 -490 226 -731 668 -1299 1310
-1686 279 -167 672 -314 947 -354 21 -3 44 -8 51 -10 7 -3 34 -7 60 -10 26 -4
58 -8 72 -11 139 -24 598 -23 715 1 11 2 43 7 70 10 170 20 452 96 648 174
665 266 1214 773 1534 1416 81 161 194 474 217 595 2 14 9 45 15 70 5 25 12
59 15 75 3 17 8 39 10 51 2 12 7 45 11 75 3 30 8 61 10 69 6 23 17 224 18 325
1 134 -13 313 -33 440 -19 118 -20 126 -51 253 -124 506 -388 977 -754 1346
-459 463 -1008 743 -1645 841 -52 8 -126 17 -165 21 -97 9 -396 10 -480 3z
m270 -953 c170 -24 305 -106 390 -238 27 -40 70 -168 81 -238 13 -84 6 -272
-12 -332 -7 -23 10 -31 80 -35 146 -10 247 -54 342 -149 70 -70 125 -172 148
-272 18 -79 17 -210 -2 -282 -40 -157 -170 -348 -367 -544 -66 -66 -113 -117
-104 -114 25 10 159 -22 225 -53 69 -33 141 -99 177 -164 48 -85 70 -229 52
-340 -19 -117 -220 -473 -340 -602 -151 -162 -256 -247 -397 -321 -104 -55
-213 -90 -236 -76 -20 13 -19 2 -25 474 -4 320 -3 325 17 341 12 9 127 87 256
174 129 87 242 164 251 172 17 15 15 53 -4 53 -9 0 -108 -48 -177 -87 -59 -33
-347 -183 -352 -183 -2 0 -5 159 -7 353 -1 193 -3 488 -5 654 l-2 301 256 111
c140 60 276 119 303 130 38 16 47 25 47 45 0 28 44 39 -343 -83 -141 -45 -261
-81 -266 -81 -4 0 -9 30 -10 68 -2 37 -4 96 -6 132 -1 36 -6 137 -10 225 -3
88 -8 192 -10 230 -7 143 -18 391 -17 408 1 20 0 20 -49 5 l-39 -11 0 -599 c0
-329 -1 -598 -3 -598 -4 0 -172 72 -222 95 -27 12 -345 151 -370 161 -6 3 -12
-10 -13 -29 l-2 -33 295 -173 c162 -95 297 -176 299 -180 3 -4 8 -243 11 -532
4 -288 8 -606 9 -706 2 -101 1 -183 -1 -183 -3 0 -86 54 -186 120 -444 291
-412 272 -415 248 -3 -15 9 -33 40 -61 23 -21 82 -75 130 -119 48 -44 97 -89
110 -99 29 -26 209 -191 265 -244 l43 -40 5 -90 c4 -49 8 -103 10 -120 5 -40
18 -204 19 -232 0 -22 4 -23 78 -23 48 0 78 -4 78 -11 0 -5 3 -8 8 -6 4 3 7
-60 7 -139 l0 -144 -97 0 -98 0 -1 28 c0 15 0 82 1 149 l1 122 -84 39 c-148
69 -264 151 -396 277 -215 206 -428 514 -502 725 -32 91 -33 245 -3 310 28 60
92 121 162 155 56 28 190 67 202 60 3 -2 12 0 19 4 9 6 -7 27 -54 72 -73 69
-134 150 -185 244 -18 33 -36 65 -40 70 -15 23 -73 182 -97 273 -21 76 -27
118 -26 193 4 303 179 482 493 505 41 3 76 6 76 7 1 1 -5 36 -13 77 -47 239
-6 469 105 592 78 87 211 150 352 167 36 4 72 7 80 5 8 -1 38 -5 65 -8z"/>
</g>
</svg>
