<?xml version="1.0" standalone="no"?>
<!DOCTYPE svg PUBLIC "-//W3C//DTD SVG 20010904//EN"
 "http://www.w3.org/TR/2001/REC-SVG-20010904/DTD/svg10.dtd">
<svg version="1.0" xmlns="http://www.w3.org/2000/svg"
 width="432.000000pt" height="432.000000pt" viewBox="0 0 432.000000 432.000000"
 preserveAspectRatio="xMidYMid meet">
<metadata>
Created by potrace 1.11, written by Peter Selinger 2001-2013
</metadata>
<g transform="translate(0.000000,432.000000) scale(0.100000,-0.100000)"
fill="#000000" stroke="none">
<path d="M2097 4184 c-1 -1 -45 -5 -99 -8 -53 -4 -107 -9 -120 -11 -12 -3 -36
-7 -53 -9 -125 -17 -324 -76 -474 -141 -487 -208 -889 -626 -1085 -1127 -31
-79 -91 -286 -100 -343 -3 -22 -8 -53 -11 -70 -24 -137 -32 -429 -15 -545 5
-30 11 -73 14 -95 42 -305 179 -627 384 -904 328 -444 837 -734 1402 -798 83
-10 368 -10 440 0 30 4 75 10 100 13 25 3 83 14 130 25 500 116 916 397 1223
827 20 28 37 54 37 57 0 2 16 29 34 59 119 184 230 491 261 716 3 19 9 64 14
100 11 81 12 377 1 445 -4 28 -11 73 -14 100 -6 41 -20 110 -41 195 -58 235
-191 505 -356 721 -214 282 -535 523 -859 648 -47 18 -96 37 -108 42 -37 15
-251 66 -305 74 -27 4 -57 8 -68 10 -50 10 -324 25 -332 19z m793 -819 c105
-35 162 -147 163 -320 1 -143 -37 -320 -82 -375 -50 -63 -168 -141 -249 -165
-12 -3 -19 -11 -16 -17 11 -18 87 -46 143 -52 30 -4 56 -8 58 -10 9 -8 -141
-284 -205 -377 -113 -166 -173 -233 -234 -262 -49 -23 -164 -65 -198 -72 -8
-2 -53 -12 -100 -24 -47 -11 -98 -23 -114 -25 -42 -7 -41 -12 5 -30 65 -26
159 -43 255 -45 49 -1 91 -5 94 -7 7 -8 -91 -100 -147 -137 -125 -84 -345
-171 -513 -203 -19 -4 -62 -12 -96 -18 -55 -10 -69 -18 -137 -79 -100 -90
-260 -216 -268 -211 -9 5 8 80 26 113 24 43 35 54 160 151 299 233 494 415
669 625 100 119 114 138 202 265 151 216 343 568 410 753 18 52 5 40 -41 -35
-60 -99 -292 -446 -306 -458 -3 -3 -21 -27 -39 -55 -66 -98 -352 -470 -380
-495 -3 -3 -18 -21 -34 -40 -72 -88 -167 -192 -312 -342 -82 -85 -84 -86 -91
-60 -15 60 -7 339 13 430 11 53 46 152 52 152 4 0 8 -21 10 -48 6 -101 25
-189 56 -264 23 -54 36 -56 37 -6 1 62 11 163 29 292 17 118 65 296 81 296 4
0 12 -21 18 -47 17 -72 17 -74 40 -136 21 -62 67 -147 79 -147 4 0 7 35 8 78
0 93 10 214 25 302 20 126 49 199 143 354 285 470 473 691 634 745 65 22 99
24 152 6z"/>
</g>
</svg>
